<?xml version="1.0" encoding="UTF-8"?>
<svg width="14px" height="14px" viewBox="0 0 14 14" version="1.1" xmlns="http://www.w3.org/2000/svg" xmlns:xlink="http://www.w3.org/1999/xlink">
    <!-- Generator: Sketch 51 (57462) - http://www.bohemiancoding.com/sketch -->
    <title>001-error</title>
    <desc>Created with Sketch.</desc>
    <defs></defs>
    <g id="Page-1" stroke="none" stroke-width="1" fill="none" fill-rule="evenodd">
        <g id="001-error" fill-rule="nonzero">
            <circle id="Oval" fill="#E57675" cx="6.97460335" cy="6.97460335" r="6.97460335"></circle>
            <g id="Group-6" transform="translate(4.397033, 4.397033)" fill="#FFFFFF">
                <path d="M0.486183722,5.50789813 C0.254516769,5.73956508 -0.121089574,5.73956508 -0.352756527,5.50789813 C-0.58442348,5.27623118 -0.58442348,4.90062484 -0.352756527,4.66895788 L4.66895788,-0.352756527 C4.90062484,-0.58442348 5.27623118,-0.58442348 5.50789813,-0.352756527 C5.73956508,-0.121089574 5.73956508,0.254516769 5.50789813,0.486183722 L0.486183722,5.50789813 Z" id="Shape"></path>
                <path d="M-0.352756527,0.486183722 C-0.58442348,0.254516769 -0.58442348,-0.121089574 -0.352756527,-0.352756527 C-0.121089574,-0.58442348 0.254516769,-0.58442348 0.486183722,-0.352756527 L5.50789813,4.66895788 C5.73956508,4.90062484 5.73956508,5.27623118 5.50789813,5.50789813 C5.27623118,5.73956508 4.90062484,5.73956508 4.66895788,5.50789813 L-0.352756527,0.486183722 Z" id="Shape"></path>
            </g>
        </g>
    </g>
</svg>