<?xml version="1.0" encoding="UTF-8"?>
<svg  width="100%" height="100%" preserveAspectRatio="none" viewBox="0 0 1440 186" version="1.1" xmlns="http://www.w3.org/2000/svg" xmlns:xlink="http://www.w3.org/1999/xlink">
    <!-- Generator: Sketch 46.1 (44463) - http://www.bohemiancoding.com/sketch -->
    <title>Flex/Waves</title>
    <desc>Created with Sketch.</desc>
    <defs>
        <rect id="path-1" x="0" y="0" width="1441" height="193"></rect>
    </defs>
    <g id="Design" stroke="none" stroke-width="1" fill="none" fill-rule="evenodd">
        <g id="Estimate" transform="translate(0.000000, -483.000000)">
            <g id="Land/content">
                <g id="Land/bg" transform="translate(0.000000, 476.000000)">
                    <g id="Flex/Waves" transform="translate(720.500000, 96.500000) scale(1, -1) translate(-720.500000, -96.500000) ">
                        <g id="Wave">
                            <mask id="mask-2" fill="white">
                                <use xlink:href="#path-1"></use>
                            </mask>
                            <g id="Rectangle"></g>
                            <path d="M1.13686838e-13,-8 L1440,-8 C1440,19.5504384 1440,43.5504384 1440,64 C1415.24374,101.083783 1377.99704,119.606518 1328,120 C1210.49885,119.606518 1132.32295,-8.00658731 1052,-8 C918.533621,-7.98914271 909.691674,135.592111 829,139 C764.107757,140.624195 745.761079,54.2538985 697,22 C671.667811,4.43172741 618.601731,21.6550215 585,39 C491.281021,89.3671742 447.714206,275.731113 317,132 C315.69342,129.714468 314.188682,138.112707 312,137 C225.598482,48.1316215 121.598482,36.4649549 1.13686838e-13,102 L1.13686838e-13,-8 Z" id="Rectangle-11-Copy-2" fill="#FFFFFF" opacity="0.0503849638" mask="url(#mask-2)"></path>
                            <path d="M4.23254911e-14,5 L1310,5 C1255.26438,94.6448423 1188.93104,131.644842 1111,116 C994.668373,93.3396794 1033.3654,5.43529988 946,5 C937.721643,5.43529988 874.596233,5.42012723 867,5 C733.668383,5.68659948 714.046951,155.173795 613,155 C541.31472,155.173795 516.55651,27.3909915 469,21 C450.542586,18.7799569 391.89962,83.0713703 358,101 C238.119348,162.83668 196.522144,184.618088 136,133 C76.0501214,80.7528967 120.999622,30.4497352 6.86353365e-15,18 C-1.64929961e-13,-18.9799829 -1.53109309e-13,-23.3133162 4.23254911e-14,5 Z" id="Rectangle-11" fill="#695050" opacity="0.0844089674" mask="url(#mask-2)"></path>
                            <path d="M-9.14201387e-13,5 L559.254315,5 L1440,5 C1379.27197,111.497719 1309.6053,164.831052 1231,165 C1113.65698,164.746579 1061.00001,22.1433923 980,22 C847.456769,22.160868 820.724464,166.991874 720,167 C619.275536,166.991874 551.817753,29.9789178 458,80 C363.748761,130.292059 368.347656,184.440075 230,145 C123.697673,97.2740186 186.062958,7.64739575 -8.74172958e-13,21 C-1.36229818e-12,-15.861788 -1.37564099e-12,-21.1951213 -9.14201387e-13,5 Z" id="Rectangle-11-Copy-3" fill="#FFFFFF" opacity="0.175215127" mask="url(#mask-2)"></path>
                            <path d="M9.09494702e-13,5 L1440,5 C1387.84693,65.0276845 1322.5136,95.0276845 1244,95 C1126.51942,95.0415267 1061.00001,22.1560102 980,22 C847.456769,22.1734621 820.724464,140.429563 720,140 C619.275536,140.429563 529.46809,20.7877028 435,71 C346.258845,118.370177 267.677859,155.619125 263,155 C224.741202,150.074031 204.180826,126.204414 183.768955,106.200355 C159.518986,82.4348795 138.087837,81.6573572 124,70 C98.8509042,49.6281642 58.6056358,25.5300064 9.09494702e-13,16 C1.5158245e-12,0.00589946219 1.5158245e-12,-3.6607672 9.09494702e-13,5 Z" id="Rectangle-11-Copy" fill="#D7D7D7" mask="url(#mask-2)"></path>
                            <path d="M-1.13686838e-12,-32 L1440,-32 L1440,34 C1381.18027,107.661191 1312.5136,144.327858 1234,144 C1116.51942,144.491787 1057.91233,5.95280934 977.111435,5.49866116 C844.369094,5.97026129 820.724464,139.89072 720,140 C619.275536,139.89072 553.984456,5.17506424 460,55 C365.915463,105.35199 307.10418,191.633538 203,150 C98.8958203,108.366462 137.605962,39.0489119 -9.09494702e-13,27 C-7.57912251e-13,-0.667559227 -8.33703477e-13,-20.3342259 -1.13686838e-12,-32 Z" id="Rectangle-11" fill="#FAFAFA" mask="url(#mask-2)"></path>
                        </g>
                    </g>
                </g>
            </g>
        </g>
    </g>
</svg>
