<?xml version="1.0" encoding="UTF-8"?>
<svg width="238px" height="242px" viewBox="0 0 238 242" version="1.1" xmlns="http://www.w3.org/2000/svg" xmlns:xlink="http://www.w3.org/1999/xlink">
    <!-- Generator: Sketch 46.1 (44463) - http://www.bohemiancoding.com/sketch -->
    <title>Confetti Pattern</title>
    <desc>Created with Sketch.</desc>
    <defs></defs>
    <g id="Symbols" stroke="none" stroke-width="1" fill="none" fill-rule="evenodd">
        <g id="Confetti-Pattern">
            <g id="triangle" transform="translate(14.532971, 104.348086) rotate(40.000000) translate(-14.532971, -104.348086) translate(3.532971, 94.848086)" stroke="#FEFEFE" stroke-width="2" stroke-linecap="round" stroke-linejoin="round">
                <path d="M9.29,1.86 L0.82,16 C0.464641628,16.6153996 0.462519934,17.3731469 0.81442652,17.9905269 C1.16633311,18.6079069 1.81941202,18.9921898 2.53,19 L19.47,19 C20.180588,18.9921898 20.8336669,18.6079069 21.1855735,17.9905269 C21.5374801,17.3731469 21.5353584,16.6153996 21.18,16 L12.71,1.86 C12.3474343,1.26228132 11.6990862,0.897255995 11,0.897255995 C10.3009138,0.897255995 9.65256566,1.26228132 9.29,1.86 Z" id="Shape"></path>
            </g>
            <g id="square" transform="translate(177.294229, 157.294229) rotate(30.000000) translate(-177.294229, -157.294229) translate(168.294229, 148.294229)" stroke="#FEFEFE" stroke-width="2" stroke-linecap="round" stroke-linejoin="round">
                <rect id="Rectangle-path" x="0" y="0" width="18" height="18" rx="2"></rect>
            </g>
            <g id="circle" transform="translate(81.000000, 70.000000)" stroke="#FEFEFE" stroke-width="2" stroke-linecap="round" stroke-linejoin="round">
                <circle id="Oval" cx="10" cy="10" r="10"></circle>
            </g>
            <g id="Card/Vue/icon" transform="translate(149.076963, 23.609766) rotate(-10.000000) translate(-149.076963, -23.609766) translate(138.576963, 13.609766)" stroke="#FEFEFE" stroke-width="2" stroke-linecap="round" stroke-linejoin="round">
                <rect id="Rectangle-path" x="0" y="0" width="20.6451613" height="14.4516129" rx="2"></rect>
                <path d="M6.19354839,18.5806452 L14.4516129,18.5806452" id="Shape"></path>
                <path d="M10.3225806,14.4516129 L10.3225806,18.5806452" id="Shape"></path>
            </g>
            <g id="Card/Vue/icon-Copy-2" transform="translate(16.838741, 12.068505) rotate(12.000000) translate(-16.838741, -12.068505) translate(5.838741, 2.068505)">
                <rect id="Rectangle-path" stroke="#FEFEFE" stroke-width="2" stroke-linecap="round" stroke-linejoin="round" x="0" y="0" width="21.3333333" height="8" rx="2"></rect>
                <rect id="Rectangle-path" stroke="#FEFEFE" stroke-width="2" stroke-linecap="round" stroke-linejoin="round" x="0" y="12" width="21.3333333" height="8" rx="2"></rect>
                <circle id="Oval-2" fill="#FEFEFE" cx="4" cy="4" r="1.33333333"></circle>
                <circle id="Oval-2-Copy" fill="#FEFEFE" cx="4" cy="16" r="1.33333333"></circle>
            </g>
            <g id="Card/Design/icon-Copy" transform="translate(66.833096, 179.833096) rotate(-123.000000) translate(-66.833096, -179.833096) translate(56.833096, 169.833096)" stroke="#FEFEFE" stroke-width="2" stroke-linecap="round" stroke-linejoin="round">
                <rect id="Rectangle-path" x="0" y="0" width="7.77777778" height="7.77777778"></rect>
                <rect id="Rectangle-path" x="12.2222222" y="0" width="7.77777778" height="7.77777778"></rect>
                <rect id="Rectangle-path" x="12.2222222" y="12.2222222" width="7.77777778" height="7.77777778"></rect>
                <rect id="Rectangle-path" x="0" y="12.2222222" width="7.77777778" height="7.77777778"></rect>
            </g>
        </g>
    </g>
</svg>