<svg width="39" height="39" viewBox="0 0 39 39" xmlns="http://www.w3.org/2000/svg">
    <g fill-rule="nonzero" fill="none"><path d="M12.1303929 27.4867976c1.7066369 1.7066369 1.7066369 4.5104584 0 6.2171726-1.7066369 1.7066369-6.73523814 3.9314167-8.44187504 2.2247798-1.70663691-1.7066369.51806547-6.7352381 2.22477976-8.441875 1.7066369-1.7067143 4.47997028-1.7067143 6.21709528-.0000774z" fill="#FFD463"/><path d="M7.04089286 26.6639286v.1828512c0 3.1695238 2.59048214 5.7600059 5.76000594 5.7600059h.121875c.8533572-1.6457381.5790417-3.7180774-.822869-5.1199881-1.3409346-1.3714226-3.41327385-1.6457381-5.05901194-.822869z" fill="#DEB957"/><path d="M21.0904107 17.91725c5.2114524 5.2114524 6.2475833 12.617119 1.3104464 17.554256l-2.3466547 2.3466547c-4.9371369 4.9371369-1.5237857-6.9180893-6.7352381-12.1295417-5.2114524-5.2114523-17.09716668-1.767613-12.12954168-6.735238l2.34665476-2.3466548C8.47329167 11.6696667 15.8789583 12.705875 21.0904107 17.91725z" fill="#F8188E"/><path d="M38.3399405.66772024c1.5847619 1.5847619.8838452 11.64188686-8.8380655 21.39428576-6.3390476 6.3085595-10.3314405 8.5333392-10.3314405 8.5333392-4.2362202 2.8647977-6.2780714.914256-8.9600178-1.7676131-2.68194646-2.681869-4.66282146-4.7237976-1.76761313-8.9600178 0 0 2.25526783-4.022881 8.56382743-10.36192859C26.7284643-.21604762 36.7551786-.94745239 38.3399405.66772024z" fill="#FFF"/><path d="M20.8465833 29.2239226c-4.4190714 2.9561845-6.5523869.9447441-9.3257202-1.8285893-2.80382143-2.8038214-4.84575-4.9066488-1.82858929-9.3257202l.45716669-.7314048c-1.18857145 1.61525-1.70663693 2.529506-1.70663693 2.529506-2.89520833 4.2362202-.91425595 6.2780714 1.76761313 8.9600178 2.681869 2.6819465 4.7237976 4.6019227 8.9600178 1.7676131 0 0 1.8894881-1.0666964 5.1504762-3.7790535-2.2247797 1.7067143-3.4743274 2.4076309-3.4743274 2.4076309z" fill="#DFDFDF"/><path d="M28.130375 10.8772857c1.4932976 1.4932976 1.4932976 3.9009286 0 5.3943036-1.4932976 1.4932976-3.9009286 1.4932976-5.3943036 0-1.4932976-1.4932976-1.4932976-3.9009286 0-5.3943036 1.4932976-1.49337499 3.9314941-1.49337499 5.3943036 0z" fill="#8BA0AB"/><path d="M19.3227976 20.324881c.7618929.7618928-.7009166 3.47425-4.4190714 7.1924047-3.7181548 3.7181548-5.97334525 4.7237976-6.7352381 3.9314167-.76189286-.7618929.21333928-3.0171607 3.9314167-6.7352381 3.7485654-3.7180774 6.4305119-5.1809643 7.2228928-4.3885833z" fill="#F8188E"/><path d="M29.0142202 1.42969048c.2743155 2.04192857 1.3714227 4.20573214 3.1695238 6.00383333 1.584762 1.55427381 3.4133512 2.59048219 5.2114524 3.01716069 2.0113631-4.99819045 1.859-8.83814283.9447441-9.78296426-.8838453-.91425595-4.5409465-1.06661905-9.3257203.76197024z" fill="#C8C8C8"/></g>
</svg>
