<?xml version="1.0" encoding="UTF-8"?>
<svg width="122px" height="145px" viewBox="0 0 122 145" version="1.1" xmlns="http://www.w3.org/2000/svg" xmlns:xlink="http://www.w3.org/1999/xlink">
    <!-- Generator: Sketch 46.1 (44463) - http://www.bohemiancoding.com/sketch -->
    <title>Group</title>
    <desc>Created with Sketch.</desc>
    <defs>
        <path d="M0.104512635,1.47419385 C2.38265076,1.86703129 4.82351371,2.13101824 7.39115523,2.00740072 C10.0185536,1.88090625 12.4954117,1.21791629 14.8233549,0.411552347 L15.6292419,0.411552347 L15.6292419,9.85288809 L0.104512635,9.85288809 L0.104512635,1.47419385 L0.104512635,1.47419385 Z" id="path-1"></path>
    </defs>
    <g id="Design" stroke="none" stroke-width="1" fill="none" fill-rule="evenodd">
        <g id="ZIOMEK" transform="translate(-658.000000, -95.000000)">
            <g id="monster" transform="translate(719.000000, 156.500000) rotate(180.000000) translate(-719.000000, -156.500000) translate(658.000000, 73.000000)">
                <g id="Group">
                    <rect id="Rectangle" fill="#D8D8D8" opacity="0" x="0" y="0" width="122" height="167"></rect>
                    <path d="M4.28862816,102.198195 C-0.579602888,94.8953069 0.637184116,77.6111913 8.67111913,79.3148014 C16.7050542,81.0194946 7.49927798,95.3810469 15.3891697,101.46769 C23.2774368,107.555415 29.3640794,106.093863 29.3640794,106.093863 C29.3640794,106.093863 35.9364621,85.8898917 36.4243682,72.7435018 C36.633935,67.0662455 36.6610108,63.2117329 36.6263538,60.6568592 C28.2935018,60.0768953 21.7102888,53.1487365 21.7102888,44.6685921 C21.7102888,35.8077617 28.8940433,28.6240072 37.7570397,28.6240072 C46.6189531,28.6240072 53.8027076,35.8077617 53.8027076,44.6685921 C53.8027076,52.400361 48.3306859,58.8541516 41.048917,60.3736462 L41.048917,86.6187726 C41.048917,86.6187726 48.5960289,84.1857401 60.0382671,83.6972924 C71.4783394,83.2104693 78.7823105,85.6440433 78.7823105,85.6440433 C78.7823105,85.6440433 80.3673285,57.7862816 78.949639,52.5400722 C70.2046931,50.9972924 63.5559567,43.3803249 63.5559567,34.1918773 C63.5570397,23.8916968 71.9066787,15.5393502 82.2079422,15.5393502 C92.5081227,15.5393502 100.859386,23.8916968 100.859386,34.1918773 C100.859386,43.9202166 93.4070397,51.9005415 83.9001805,52.7583032 C84.0296029,60.5528881 86.1599278,79.3267148 88.5203971,87.350361 C88.5203971,87.350361 95.5032491,95.8602888 98.8314079,107.495848 C102.436823,106.205415 107.731227,103.823827 109.843682,100.413357 C113.179422,95.0231047 110.612635,84.7575812 103.553971,77.8267148 C96.4947653,70.8953069 102.14278,64.7366426 109.585921,71.1536101 C117.029603,77.5689531 120.315523,96.5642599 112.126173,104.263538 C107.36787,108.73917 102.783935,110.606859 99.7709386,111.390433 C99.9258123,112.170758 100.062816,112.959747 100.173827,113.761191 C102.226173,128.477437 123.40704,155.753069 115.897292,161.787184 C114.366426,162.229603 107.175632,157.334296 103.725632,157.538448 C95.1019856,158.051264 93.9009025,165.548014 80.7626354,159.996931 C78.2808664,158.63935 76.4169675,157.282852 73.1386282,158.593321 C66.2938628,161.329061 66.6366426,164.697834 61.5025271,162.329783 C56.3689531,159.961191 53.6315884,156.539892 49.1819495,159.961191 C44.7333935,163.382491 38.2308664,164.933394 33.7812274,163.131769 C29.33213,161.329061 25.5680505,157.90722 20.7756318,159.276715 C15.9853791,160.646209 15.5326715,163.404693 13.5902527,163.890433 C8.21083032,165.230686 6.6631769,165.040614 5.50595668,162.329783 C4.34927798,159.619495 9.64584838,155.271119 14.9998195,152.835379 C20.3570397,150.400722 22.3037906,136.523827 24.0074007,128.978881 C25.7120939,121.431769 29.3640794,109.746931 29.3640794,109.746931 C29.3640794,109.746931 9.15794224,109.502166 4.28862816,102.198195" id="Fill-38" fill="#684BC6"></path>
                </g>
                <path d="M70.1862816,31.882852 C74.0191336,31.8953069 78.0886282,26.7102888 81.9193141,26.734657 C86.1658845,26.7622744 90.1731047,31.9906137 94.4207581,31.7610108 C94.6427798,32.7075812 94.7722022,33.6920578 94.7722022,34.7068592 C94.7722022,41.7925993 89.0261733,47.5407942 81.9388087,47.5407942 C74.8519856,47.5407942 69.1043321,41.7925993 69.1043321,34.7068592 C69.1043321,33.7158845 69.2288809,32.7546931 69.4411552,31.8276173 C69.6810469,31.8601083 69.9274368,31.881769 70.1862816,31.882852" id="Fill-39" fill="#FFFFFE"></path>
                <path d="M26.1555957,41.8028881 C29.9900722,41.8148014 34.0032491,36.5101083 37.8355596,36.5350181 C42.0799639,36.5620939 46.1440433,41.9101083 50.3873646,41.6815884 C50.6099278,42.6292419 50.7404332,43.6099278 50.7404332,44.6268953 C50.7404332,51.7137184 44.9944043,57.4613718 37.9070397,57.4613718 C30.8196751,57.4613718 25.0725632,51.7137184 25.0725632,44.6268953 C25.0725632,43.6353791 25.1954874,42.6752708 25.4088448,41.7471119 C25.6481949,41.7796029 25.8956679,41.8012635 26.1555957,41.8028881" id="Fill-40" fill="#FFFFFE"></path>
                <path d="M38.616426,103.108484 C42.3382671,97.4637184 50.8081227,103.6213 61.4597473,103.108484 C72.1113718,102.595668 80.2888087,93.265343 86.100361,101.311191 C92.7740072,110.551083 82.5680505,122.176354 62.3851986,123.412094 C46.5025271,122.972924 34.8940433,108.755415 38.616426,103.108484" id="Fill-41" fill="#000307"></path>
                <g id="Group-45" transform="translate(54.068592, 101.101083)">
                    <mask id="mask-2" fill="white">
                        <use xlink:href="#path-1"></use>
                    </mask>
                    <g id="Clip-43"></g>
                    <path d="M0.104512635,5.90252708 C0.104512635,7.89476534 1.7198556,9.50631769 3.71101083,9.50631769 C5.70054152,9.50631769 7.31534296,7.89476534 7.31534296,5.90252708 L7.31534296,0.411552347 L0.104512635,0.411552347 L0.104512635,5.90252708" id="Fill-42" fill="#FBF9D3" mask="url(#mask-2)"></path>
                    <path d="M8.4200361,6.24693141 C8.4200361,8.23862816 10.034296,9.85288809 12.0249097,9.85288809 C14.0149819,9.85288809 15.6292419,8.23916968 15.6292419,6.24801444 L15.6292419,0.531227437 L8.4200361,0.531227437 L8.4200361,6.24693141" id="Fill-44" fill="#FBF9D3" mask="url(#mask-2)"></path>
                </g>
                <path d="M12.4389892,161.238087 C19.8258123,156.621119 26.0592058,154.88231 32.8698556,159.325993 C39.3074007,164.024729 51.3734657,151.221119 58.3601083,157.112274 C65.3472924,163.00343 75.6333935,151.550361 80.733935,155.064801 C85.8344765,158.578159 88.6416968,154.86769 96.7969314,152.537004 C100.518231,151.472924 109.979061,156.679061 111.451986,154.804874 C117.121661,147.580505 101.446931,133.340794 100.493321,133.399819 C102.965884,137.985921 109.895668,144.068231 107.901805,147.37852 C106.514982,150.881047 102.659386,148.080325 98.1707581,148.609928 C93.2456679,149.189892 87.4590253,152.831047 81.0144404,150.627617 C72.5283394,147.726715 67.3330325,159.852888 55.7472924,151.187004 C49.9032491,146.815884 39.0788809,158.851083 30.3610108,155.025271 C24.3068592,152.708664 17.9597473,153.072022 12.2001805,157.534657 C6.73519856,161.76769 8.07166065,163.96787 12.4389892,161.238087" id="Fill-46" fill="#B8A8EC"></path>
                <path d="M81.9794224,29.768231 C84.751444,29.768231 86.999278,32.0880866 86.999278,34.9494585 C86.999278,37.8108303 84.751444,40.1306859 81.9794224,40.1306859 C79.2074007,40.1306859 76.9601083,37.8108303 76.9601083,34.9494585 C76.9601083,32.0880866 79.2074007,29.768231 81.9794224,29.768231" id="Fill-47" fill="#1A1919"></path>
                <path d="M37.9546931,40.2216606 C40.7272563,40.2216606 42.9745487,42.5420578 42.9745487,45.4034296 C42.9745487,48.265343 40.7272563,50.584657 37.9546931,50.584657 C35.183213,50.584657 32.9353791,48.265343 32.9353791,45.4034296 C32.9353791,42.5420578 35.183213,40.2216606 37.9546931,40.2216606" id="Fill-48" fill="#1A1919"></path>
                <path d="M41.0034296,41.1611913 C42.3772563,41.1611913 43.4916968,42.3119134 43.4916968,43.7306859 C43.4916968,45.148917 42.3772563,46.2990975 41.0034296,46.2990975 C39.6290614,46.2990975 38.5151625,45.148917 38.5151625,43.7306859 C38.5151625,42.3119134 39.6290614,41.1611913 41.0034296,41.1611913" id="Fill-49" fill="#FFFFFE"></path>
                <path d="M85.0888087,30.050361 C86.4637184,30.050361 87.5770758,31.201083 87.5770758,32.6193141 C87.5770758,34.0380866 86.4637184,35.1877256 85.0888087,35.1877256 C83.7149819,35.1877256 82.6005415,34.0380866 82.6005415,32.6193141 C82.6005415,31.201083 83.7149819,30.050361 85.0888087,30.050361" id="Fill-50" fill="#FFFFFE"></path>
                <path d="M39.6913357,135.155957 C41.2476534,135.155957 42.5077617,136.312094 42.5077617,137.737906 C42.5077617,139.163718 41.2476534,140.320397 39.6913357,140.320397 C38.1355596,140.320397 36.8754513,139.163718 36.8754513,137.737906 C36.8754513,136.312094 38.1355596,135.155957 39.6913357,135.155957" id="Fill-51" fill="#F8188E"></path>
                <path d="M46.5523466,140.690253 C48.8191336,140.690253 50.6570397,142.375451 50.6570397,144.452708 C50.6570397,146.531047 48.8191336,148.216245 46.5523466,148.216245 C44.2861011,148.216245 42.4481949,146.531047 42.4481949,144.452708 C42.4481949,142.375451 44.2861011,140.690253 46.5523466,140.690253" id="Fill-52" fill="#F8188E"></path>
                <path d="M34.3043321,141.562635 C37.6460289,141.562635 40.3546931,144.046029 40.3546931,147.109386 C40.3546931,150.172202 37.6460289,152.655596 34.3043321,152.655596 C30.9626354,152.655596 28.2534296,150.172202 28.2534296,147.109386 C28.2534296,144.046029 30.9626354,141.562635 34.3043321,141.562635" id="Fill-53" fill="#F8188E"></path>
                <path d="M80.5698556,86.899278 C81.299278,86.899278 81.8900722,87.4418773 81.8900722,88.1095668 C81.8900722,88.7783394 81.299278,89.3198556 80.5698556,89.3198556 C79.8409747,89.3198556 79.2501805,88.7783394 79.2501805,88.1095668 C79.2501805,87.4418773 79.8409747,86.899278 80.5698556,86.899278" id="Fill-54" fill="#F8188E"></path>
                <path d="M83.7859206,89.4936823 C84.8472924,89.4936823 85.7088448,90.2826715 85.7088448,91.2563177 C85.7088448,92.2299639 84.8472924,93.0200361 83.7859206,93.0200361 C82.7234657,93.0200361 81.8619134,92.2299639 81.8619134,91.2563177 C81.8619134,90.2826715 82.7234657,89.4936823 83.7859206,89.4936823" id="Fill-55" fill="#F8188E"></path>
                <path d="M78.0458484,89.9019856 C79.6113718,89.9019856 80.8812274,91.0662455 80.8812274,92.5012635 C80.8812274,93.9368231 79.6113718,95.1005415 78.0458484,95.1005415 C76.4792419,95.1005415 75.2104693,93.9368231 75.2104693,92.5012635 C75.2104693,91.0662455 76.4792419,89.9019856 78.0458484,89.9019856" id="Fill-56" fill="#F8188E"></path>
            </g>
        </g>
    </g>
</svg>