<?xml version="1.0" encoding="UTF-8"?>
<svg width="100%" height="100%" preserveAspectRatio="none" viewBox="0 0 1440 251" version="1.1" xmlns="http://www.w3.org/2000/svg" xmlns:xlink="http://www.w3.org/1999/xlink">
    <!-- Generator: Sketch 46.1 (44463) - http://www.bohemiancoding.com/sketch -->
    <desc>Created with Sketch.</desc>
    <defs></defs>
    <g id="Design" stroke="none" stroke-width="1" fill="none" fill-rule="evenodd">
        <g id="Services" transform="translate(0.000000, -1182.000000)">
            <g id="Flex" transform="translate(0.000000, 1182.000000)">
                <g id="Flex/Waves">
                    <g id="Wave">
                        <path d="M1.13686838e-13,24 L1440,24 C1440,51.5504384 1440,75.5504384 1440,96 C1415.24374,133.083783 1377.99704,151.606518 1328,152 C1210.49885,151.606518 1132.32295,23.9934127 1052,24 C918.533621,24.0108573 909.691674,167.592111 829,171 C764.107757,172.624195 745.761079,86.2538985 697,54 C671.667811,36.4317274 618.601731,53.6550215 585,71 C491.281021,121.367174 447.714206,327.731113 317,184 C315.69342,181.714468 314.188682,190.112707 312,189 C225.598482,100.131622 121.598482,81.7982882 1.13686838e-13,134 L1.13686838e-13,24 Z" id="Rectangle-11-Copy-2" fill="#FFFFFF" opacity="0.0503849638"></path>
                        <path d="M0,37 L1310,37 C1255.26438,126.644842 1188.93104,163.644842 1111,148 C994.668373,125.339679 1033.3654,37.4352999 946,37 C937.721643,37.4352999 874.596233,37.4201272 867,37 C733.668383,37.6865995 714.046951,187.173795 613,187 C541.31472,187.173795 516.55651,59.3909915 469,53 C450.542586,50.7799569 391.89962,115.07137 358,133 C238.119348,194.83668 206.522144,286.618088 146,235 C86.0501214,182.752897 120.999622,92.4497352 0,80 C-1.71793495e-13,43.0200171 -1.71793495e-13,28.6866838 0,37 Z" id="Rectangle-11" fill="#535069" opacity="0.17504529"></path>
                        <path d="M-1.02318154e-12,37 L1440,37 C1379.27197,116.831052 1309.6053,156.831052 1231,157 C1113.65698,156.746579 1061.00001,54.1433923 980,54 C847.456769,54.160868 820.724464,198.991874 720,199 C619.275536,198.991874 551.817753,81.9789178 458,132 C363.748761,182.292059 368.347656,256.440075 230,217 C123.697673,169.274019 186.062958,59.6473958 -1.02318154e-12,73 C-1.51130677e-12,36.138212 -1.51130677e-12,24.138212 -1.02318154e-12,37 Z" id="Rectangle-11-Copy-3" fill="#FFFFFF" opacity="0.175215127"></path>
                        <path d="M9.09494702e-13,37 L1440,37 C1387.84693,97.0276845 1322.5136,127.027684 1244,127 C1126.51942,127.041527 1061.00001,54.1560102 980,54 C847.456769,54.1734621 820.724464,172.429563 720,172 C619.275536,172.429563 529.46809,72.7877028 435,123 C341.399098,172.964318 353.097656,218.924629 263,207 C179.288502,196.221819 149.94596,123.469678 124,102 C98.8509042,81.6281642 58.6056358,87.5300064 9.09494702e-13,78 C1.5158245e-12,62.0058995 1.5158245e-12,48.3392328 9.09494702e-13,37 Z" id="Rectangle-11-Copy" fill="#D7D7D7"></path>
                        <path d="M-1.13614013e-12,-2.84217094e-14 L1440,-2.84217094e-14 L1440,36 C1381.18027,102.994525 1312.5136,136.327858 1234,136 C1116.51942,136.491787 1057.91233,37.9528093 977.111435,37.4986612 C844.369094,37.9702613 820.724464,171.89072 720,172 C619.275536,171.89072 553.984456,57.1750642 460,107 C365.915463,157.35199 320.972995,279.008863 233,222 C145.092017,165.425599 137.605962,91.0489119 -1.13614013e-12,79 C-1.13711113e-12,77.5345279 -1.13711113e-12,51.2011945 -1.13614013e-12,-2.84217094e-14 Z" id="Rectangle-11" fill="#FAFAFA"></path>
                    </g>
                </g>
            </g>
        </g>
    </g>
</svg>
