<svg width="1440" height="375" viewBox="0 0 1440 375" xmlns="http://www.w3.org/2000/svg" xmlns:xlink="http://www.w3.org/1999/xlink">
  <defs>
    <path d="M0 233.902344c88.0494792-64.4375 185.5-96.600261 292.351563-96.488281 160.277343.167968 293.453125 138.34375 468.097656 134.050781 174.644531-4.292969 240.886721-133.941406 378.359371-203.261719C1230.45703 21.9895833 1330.85417-.41145833 1440 1v348H0V233.902344z" id="a"/>
  </defs>
  <g fill="none" fill-rule="evenodd">
    <path d="M0 259.902344c88.0494792-64.4375 185.5-96.600261 292.351563-96.488281 160.277343.167968 293.453125 138.34375 468.097656 134.050781 174.644531-4.292969 240.886721-133.941406 378.359371-203.261719C1230.45703 47.9895833 1330.85417 25.5885417 1440 27v348H0V259.902344z" fill="#F8F8F8"/>
    <path d="M0 247.902344c88.0494792-77.770834 185.5-116.600261 292.351563-116.488282 160.277343.167969 293.453125 164.34375 468.097656 160.050782 174.644531-4.292969 226.821164-156.054715 361.667971-226.0312503C1195.08333 27.5690104 1301.04427 14.7578125 1440 27v300H0v-79.097656z" fill-opacity=".20000002" fill="#D7D7D7"/>
    <path d="M0 207.902344c60.7421875-51.083334 120.859375-76.579427 180.351563-76.488281 156.910258.240396 373.78125 137.785156 548.097656 136.050781 174.316406-1.734375 293.992191-146.722656 434.359371-205.261719C1256.38672 23.1770833 1348.78385 2.44270833 1440 0v327H0V207.902344z" fill-opacity=".1" fill="#EEE"/>
    <g transform="translate(0 26)">
      <mask id="b" fill="#fff">
        <use xlink:href="#a"/>
      </mask>
      <use fill="#EFEFEF" xlink:href="#a"/>
      <path d="M0 217.902344c111.046875-26.273438 200.481771-39.335938 268.304688-39.1875 160.271028.35077 229.5 105.042968 404.144531 100.75 174.644531-4.292969 325.9365-137.700775 498.359371-203.261719C1269.64453 38.6223958 1359.375 20.8880208 1440 23v-55H0v249.902344z" fill-opacity=".25" fill="#E7E7E7" mask="url(#b)"/>
      <path d="M0 217.902344c89.7135417-74.273438 168.481771-111.335938 236.304688-111.1875 160.271028.35077 445.5 177.042968 620.144531 172.75 174.644531-4.292969 149.182591-129.626556 321.605471-195.1875002C1276.89063 46.6966146 1364.20573 20.9375 1440 7v-39H0v249.902344z" fill-opacity=".25" fill="#E5E5E5" mask="url(#b)"/>
      <path d="M0 265.902344c77.4661458-73.578125 175.578125-108.223959 294.335938-103.9375 172.6104 6.23022 283.46875 137.792968 458.113281 133.5 174.644531-4.292969 332.903361-164.861527 442.523441-237.7070315C1237.97786 29.1796875 1319.65365 4.92708333 1440-15v-17H0v297.902344z" fill-opacity=".5" fill="#CACACA" mask="url(#b)"/>
      <path d="M0 111.851628c53.8106112 55.685815 144.490299 84.951419 272.039063 87.796809 98.875 2.20573 234.539062-11.632812 406.992187-41.515624 186.507813.283854 335.22135-11.653646 446.14063-35.812501C1236.09115 98.1614583 1341.03385 65.7213542 1440 25v-57H0v143.851628z" fill-opacity=".1" fill="#DADADA" mask="url(#b)"/>
    </g>
  </g>
</svg>
