<svg width="100%" height="100%" preserveAspectRatio="none" version="1.1" xmlns="http://www.w3.org/2000/svg" xmlns:xlink="http://www.w3.org/1999/xlink">
  <g id="Design" stroke="none" stroke-width="1" fill="none" fill-rule="evenodd">
    <g id="Services-/-Vue" transform="translate(0.000000, -2865.000000)">
      <g id="Technologies" transform="translate(0.000000, 2803.000000)">
        <g id="Wave" transform="translate(720.000000, 335.000000) scale(1, -1) translate(-720.000000, -335.000000) translate(0.000000, 60.000000)">
          <path d="M1.97990113,153 L1440,153 L1439.56308,231.286278 C1397.70217,271.415787 1359.55878,291.480542 1325.13293,291.480542 C1207.64749,291.480542 1129.65454,163.837047 1049.11378,163.843636 C916.365542,163.854496 907.544288,307.469941 826.843609,310.266556 C762.301081,312.503223 743.99734,226.112359 696.128328,193.840846 C670.077473,176.278324 617.135583,193.50572 584.035381,211.154682 C490.112842,261.233997 446.647986,467.647077 316.429948,323.252071 C314.936168,321.595662 313.434952,329.9959 311.926667,328.453605 C181.952424,195.548617 -0.513349014,502.47566 0.00108537367,543.199636 C0.397060197,574.546042 1.05666545,444.479497 1.97990113,153 Z" id="Rectangle-11-Copy-2" fill="#FFFFFF" opacity="0.0503849638"></path>
          <path d="M5.5211391e-13,177.00673 L1310,177.00673 C1255.26438,266.184005 1189.0252,303.099973 1111.28247,287.754632 C994.668373,264.736621 1033.3654,177.00673 946.380188,177.00673 C937.721643,177.00673 874.596233,176.991587 866.571948,177.00673 C733.668383,177.257531 714.046951,326.447997 613.322487,326.447997 C541.31472,326.447997 516.55651,198.91884 469.363256,192.775044 C450.542586,190.324898 391.89962,254.488694 357.783257,272.149611 C238.119348,334.095672 268.835816,483.330436 119.838093,416.723904 C13.697673,369.275895 -4.36595204e-14,494.662414 2.27373675e-13,543.178338 C4.53859172e-13,581.354368 5.62105917e-13,459.297166 5.5211391e-13,177.00673 Z" id="Rectangle-11" fill="#FFFFFF" opacity="0.281646286"></path>
          <path d="M5.5211391e-13,177 L1440,177 C1385.93864,250.165822 1319.69946,286.748734 1241.28247,286.748734 C1123.65698,286.748734 1061.00001,194.174537 980.363248,194.181135 C847.456769,194.192008 820.724464,338.982093 720,338.982093 C619.275536,338.982093 551.817753,222.002198 457.783257,272.144597 C363.748761,322.286997 378.835816,483.329233 229.838093,416.721499 C123.697673,369.272634 -4.36595204e-14,494.661415 2.27373675e-13,543.178215 C4.53859172e-13,581.354934 5.62105917e-13,459.295529 5.5211391e-13,177 Z" id="Rectangle-11-Copy-3" fill="#EEEEEE" opacity="0.175215127"></path>
          <path d="M5.5211391e-13,177 L1440,177 C1387.84693,237.09251 1322.5619,267.138765 1244.14491,267.138765 C1126.51942,267.138765 1061.00001,194.174537 980.363248,194.181135 C847.456769,194.192008 820.724464,312.575816 720,312.575816 C619.275536,312.575816 551.817753,222.002198 457.783257,272.144597 C363.748761,322.286997 373.601069,465.40916 224.603346,398.801426 C118.462926,351.352561 -4.36595204e-14,494.661415 2.27373675e-13,543.178215 C4.53859172e-13,581.354934 5.62105917e-13,459.295529 5.5211391e-13,177 Z" id="Rectangle-11-Copy" fill="#EFEFEF"></path>
          <path d="M0,0.811306582 C665.393522,0.811306582 1145.39352,0.811306582 1440,0.811306582 C1440,43.5557977 1440,102.285362 1440,177 C1387.84693,237.09251 1322.5619,267.138765 1244.14491,267.138765 C1126.51942,267.138765 1057.8009,176.993403 977.164138,177 C844.257659,177.010874 820.724464,312.575816 720,312.575816 C619.275536,312.575816 553.984456,197.736632 459.94996,247.879031 C365.915463,298.02143 382.03023,449.564254 233.032506,382.95652 C126.892087,335.507655 -4.36595204e-14,494.661415 2.27373675e-13,543.178215 C4.53859172e-13,581.354934 3.78067947e-13,400.565964 0,0.811306582 Z" id="Rectangle-11" fill="#F3F3F3"></path>
        </g>
      </g>
    </g>
  </g>
</svg>
