<?xml version="1.0" encoding="UTF-8"?>
<svg width="100%" height="100%" preserveAspectRatio="none" viewBox="0 0 1440 236" version="1.1" xmlns="http://www.w3.org/2000/svg" xmlns:xlink="http://www.w3.org/1999/xlink">
    <!-- Generator: Sketch 46.1 (44463) - http://www.bohemiancoding.com/sketch -->
    <title>Wave</title>
    <desc>Created with Sketch.</desc>
    <defs></defs>
    <g id="Design" stroke="none" stroke-width="1" fill="none" fill-rule="evenodd">
        <g id="Services-/-Vue" transform="translate(0.000000, -1769.000000)">
            <g id="InventiStudio-+-Vue.js-=" transform="translate(0.000000, 1769.000000)">
                <g id="Wave" transform="translate(-1.000000, -15.000000)">
                    <path d="M1,1 L1441,1 C1441,14.9381873 1441,41.6048539 1441,81 C1416.42324,112.756375 1375.51255,128.674899 1328,129 C1210.32775,128.674899 1132.22748,0.993409155 1052,1 C918.644984,1.01086311 909.811591,144.669057 829,147 C764.368519,149.703838 746.039591,63.2872585 698,31 C672.018005,13.4383892 619.003264,30.6709127 586,48 C491.80573,98.4193502 448.281064,304.893873 318,160 C316.388002,158.798983 314.88472,167.201721 313,166 C183.221263,32.714418 0.485944473,183.287477 1,224 C1.39724422,255.371454 1.39724422,181.03812 1,1 Z" id="Rectangle-11-Copy-2" fill="#FFFFFF" opacity="0.0503849638"></path>
                    <path d="M1,14 L1311,14 C1256.26438,103.118919 1189.93104,140.118919 1112,125 C995.668373,101.674797 1034.3654,14.0067253 947,14 C938.721643,14.0067253 875.596233,13.9915934 868,14 C734.668383,14.2573493 715.046951,163.342687 614,163 C542.31472,163.342687 517.55651,35.9033947 470,30 C451.542586,27.3155086 392.89962,91.4340911 359,109 C239.119348,170.984973 207.522144,262.519649 147,211 C87.0501214,158.933673 110.993293,124.676588 1,140 C1,103.170344 1,61.1703444 1,14 Z" id="Rectangle-11" fill="#186E81" opacity="0.281646286"></path>
                    <path d="M1,14 L1441,14 C1386.93864,87.0860643 1320.6053,123.752731 1242,124 C1124.65698,123.629096 1062.00001,31.1558154 981,31 C848.456769,31.173267 821.724464,175.805516 721,176 C620.275536,175.805516 552.817753,58.9531411 459,109 C364.748761,159.128619 379.835816,300.017105 231,233 C124.697673,186.084839 60.8370196,123.629096 1,180 C1,143.085354 1,87.7520203 1,14 Z" id="Rectangle-11-Copy-3" fill="#FFFFFF" opacity="0.175215127"></path>
                    <path d="M1,14 L1441,14 C1388.84693,74.0630564 1323.5136,104.063056 1245,104 C1127.51942,104.094585 1062.00001,31.1661195 981,31 C848.456769,31.1835817 821.724464,149.509366 721,150 C620.275536,149.509366 552.817753,58.980141 459,109 C364.748761,159.215787 374.601069,282.277604 226,216 C119.462926,168.276908 108.83106,118.502973 1,180 C1,163.757319 1,108.423985 1,14 Z" id="Rectangle-11-Copy" fill="#14AB97"></path>
                    <path d="M1,14 L1441,14 C1388.84693,73.9775928 1323.5136,103.977593 1245,104 C1127.51942,103.966389 1058.8009,13.9934154 978,14 C845.257659,14.0108528 821.724464,149.31655 721,149 C620.275536,149.31655 554.984456,34.6969763 461,85 C366.915463,134.789997 383.03023,266.081266 234,200 C127.892087,152.242782 66.2777552,149.31655 1,180 C1,152.661371 1,97.3280374 1,14 Z" id="Rectangle-11" fill="#FAFAFA"></path>
                </g>
            </g>
        </g>
    </g>
</svg>
