<?xml version="1.0" encoding="UTF-8"?>
<svg width="100%" height="100%" preserveAspectRatio="none" viewBox="0 0 1440 375" version="1.1" xmlns="http://www.w3.org/2000/svg" xmlns:xlink="http://www.w3.org/1999/xlink">
    <!-- Generator: Sketch 46.1 (44463) - http://www.bohemiancoding.com/sketch -->
    <title>Wave</title>
    <desc>Created with Sketch.</desc>
    <defs>
        <path d="M9.14823772e-13,233.902344 C88.0494792,169.464844 185.5,137.302083 292.351562,137.414062 C452.628906,137.582031 585.804688,275.757812 760.449219,271.464844 C935.09375,267.171875 1001.33594,137.523438 1138.80859,68.203125 C1230.45703,21.9895833 1330.85417,-0.411458333 1440,1 L1440,349 L2.73284475e-12,349 L9.14823772e-13,233.902344 Z" id="path-1"></path>
    </defs>
    <g id="Design" stroke="none" stroke-width="1" fill="none" fill-rule="evenodd">
        <g id="Services-/-UI/UX" transform="translate(0.000000, -669.000000)">
            <g id="Wave" transform="translate(0.000000, 669.000000)">
                <g id="Wave/white">
                    <path d="M9.14823772e-13,259.902344 C88.0494792,195.464844 185.5,163.302083 292.351562,163.414062 C452.628906,163.582031 585.804688,301.757812 760.449219,297.464844 C935.09375,293.171875 1001.33594,163.523438 1138.80859,94.203125 C1230.45703,47.9895833 1330.85417,25.5885417 1440,27 L1440,375 L2.73284475e-12,375 L9.14823772e-13,259.902344 Z" id="Rectangle-13" fill="#F8F8F8"></path>
                    <path d="M9.14823772e-13,247.902344 C88.0494792,170.13151 185.5,131.302083 292.351562,131.414062 C452.628906,131.582031 585.804688,295.757812 760.449219,291.464844 C935.09375,287.171875 987.270383,135.410129 1122.11719,65.4335937 C1195.08333,27.5690104 1301.04427,14.7578125 1440,27 L1440,327 L2.73284475e-12,327 L9.14823772e-13,247.902344 Z" id="Rectangle-13-Copy" fill-opacity="0.200000018" fill="#FEFEFE"></path>
                    <path d="M9.14823772e-13,207.902344 C60.7421875,156.81901 120.859375,131.322917 180.351562,131.414062 C337.261821,131.654459 554.132813,269.199219 728.449219,267.464844 C902.765625,265.730469 1022.44141,120.742188 1162.80859,62.203125 C1256.38672,23.1770833 1348.78385,2.44270833 1440,2.27373675e-13 L1440,327 L2.73284475e-12,327 L9.14823772e-13,207.902344 Z" id="Rectangle-13-Copy-4" fill-opacity="0.100000001" fill="#FEFEFE"></path>
                </g>
                <g id="Wave/pink" transform="translate(0.000000, 26.000000)">
                    <mask id="mask-2" fill="white">
                        <use xlink:href="#path-1"></use>
                    </mask>
                    <use id="Rectangle-13-Copy-2" fill="#FAFAFA" xlink:href="#path-1"></use>
                    <path d="M9.14823772e-13,217.902344 C111.046875,191.628906 200.481771,178.566406 268.304688,178.714844 C428.575716,179.065614 497.804688,283.757812 672.449219,279.464844 C847.09375,275.171875 998.385719,141.764069 1170.80859,76.203125 C1269.64453,38.6223958 1359.375,20.8880208 1440,23 L1440,-32 L2.73381318e-12,-32 L9.14823772e-13,217.902344 Z" id="Rectangle-13-Copy-3" fill-opacity="0.25" fill="#FC895B" mask="url(#mask-2)"></path>
                    <path d="M9.14823772e-13,217.902344 C89.7135417,143.628906 168.481771,106.566406 236.304688,106.714844 C396.575716,107.065614 681.804688,283.757812 856.449219,279.464844 C1031.09375,275.171875 1005.63181,149.838288 1178.05469,84.2773438 C1276.89062,46.6966146 1364.20573,20.9375 1440,7 L1440,-32 L2.73381318e-12,-32 L9.14823772e-13,217.902344 Z" id="Rectangle-13-Copy-7" fill-opacity="0.25" fill="#FBA463" mask="url(#mask-2)"></path>
                    <path d="M9.14823772e-13,265.902344 C77.4661458,192.324219 175.578125,157.678385 294.335938,161.964844 C466.946338,168.195064 577.804688,299.757812 752.449219,295.464844 C927.09375,291.171875 1085.35258,130.603317 1194.97266,57.7578125 C1237.97786,29.1796875 1319.65365,4.92708333 1440,-15 L1440,-32 L2.73381318e-12,-32 L9.14823772e-13,265.902344 Z" id="Rectangle-13-Copy-5" fill-opacity="0.5" fill="#F9AA6B" mask="url(#mask-2)"></path>
                    <path d="M5.32907052e-15,111.851628 C53.8106112,167.537443 144.490299,196.803047 272.039062,199.648437 C370.914062,201.854167 506.578125,188.015625 679.03125,158.132813 C865.539062,158.416667 1014.2526,146.479167 1125.17188,122.320312 C1236.09115,98.1614583 1341.03385,65.7213542 1440,25 L1440,-32 L2.73381318e-12,-32 L5.32907052e-15,111.851628 Z" id="Rectangle-13-Copy-6" fill-opacity="0.1" fill="#FAA363" mask="url(#mask-2)"></path>
                </g>
            </g>
        </g>
    </g>
</svg>
