<?xml version="1.0" encoding="UTF-8"?>
<svg width="235px" height="186px" viewBox="0 0 235 186" version="1.1" xmlns="http://www.w3.org/2000/svg" xmlns:xlink="http://www.w3.org/1999/xlink">
    <!-- Generator: Sketch 46.1 (44463) - http://www.bohemiancoding.com/sketch -->
    <title>rwd</title>
    <desc>Created with Sketch.</desc>
    <defs>
        <filter x="-15.7%" y="-12.8%" width="131.3%" height="141.4%" filterUnits="objectBoundingBox" id="filter-1">
            <feOffset dx="0" dy="12" in="SourceAlpha" result="shadowOffsetOuter1"></feOffset>
            <feGaussianBlur stdDeviation="8.5" in="shadowOffsetOuter1" result="shadowBlurOuter1"></feGaussianBlur>
            <feColorMatrix values="0 0 0 0 0.46704932   0 0 0 0 0.46704932   0 0 0 0 0.46704932  0 0 0 0.08 0" type="matrix" in="shadowBlurOuter1" result="shadowMatrixOuter1"></feColorMatrix>
            <feMerge>
                <feMergeNode in="shadowMatrixOuter1"></feMergeNode>
                <feMergeNode in="SourceGraphic"></feMergeNode>
            </feMerge>
        </filter>
        <path d="M0,95.3106071 L0,9.81152612 C0,4.39275143 4.394282,0 9.81494477,0 L152.830669,0 C158.251332,0 162.645614,4.39275143 162.645614,9.81152612 L162.645614,95.3106071 L0,95.3106071 Z" id="path-2"></path>
        <polygon id="path-4" points="0 0 53.3333333 0 53.3333333 76.0587989 0 76.0587989"></polygon>
    </defs>
    <g id="Design" stroke="none" stroke-width="1" fill="none" fill-rule="evenodd">
        <g id="Services-/-UI/UX" transform="translate(-988.000000, -1115.000000)">
            <g id="rwd" transform="translate(235.000000, 1107.000000)">
                <g filter="url(#filter-1)" transform="translate(770.000000, 13.000000)">
                    <g id="005-analytics">
                        <g id="page">
                            <mask id="mask-3" fill="white">
                                <use xlink:href="#path-2"></use>
                            </mask>
                            <use id="Shape" fill="#FFFFFF" fill-rule="nonzero" xlink:href="#path-2"></use>
                            <path d="M161.382128,48.3007836 L-1.32921746,48.3007836 C-4.75744455,48.3007836 -7.56613757,45.8917042 -7.56613757,42.9512366 L-7.56613757,7.68750945 C-7.56613757,4.74347544 -4.75744455,2.3379625 -1.32921746,2.3379625 L161.382128,2.3379625 C164.812434,2.3379625 167.619048,4.74347544 167.619048,7.68750945 L167.619048,42.9512366 C167.619048,45.8917042 164.812434,48.3007836 161.382128,48.3007836 Z" id="Fill-42" fill="#E57675" mask="url(#mask-3)"></path>
                            <path d="M164.588233,10.0347482 L164.588233,3.37354868 C164.588233,1.62515455 163.571552,0.207999146 162.31906,0.207999146 L2.46745098,0.207999146 C1.21414255,0.207999146 0.198277311,1.62515455 0.198277311,3.37354868 L0.198277311,10.0347482 L83.1067517,10.0347482" id="Fill-15" fill="#5C5B5D" mask="url(#mask-3)"></path>
                            <path d="M10.3361827,5.38192236 C10.3361827,6.17149267 9.69565723,6.81097936 8.90825967,6.81097936 C8.11923021,6.81097936 7.48033665,6.17149267 7.48033665,5.38192236 C7.48033665,4.59479907 8.11923021,3.9544967 8.90825967,3.9544967 C9.69565723,3.9544967 10.3361827,4.59479907 10.3361827,5.38192236" id="Fill-31" fill="#FFFFFF" mask="url(#mask-3)"></path>
                            <path d="M16.5496877,5.38192236 C16.5496877,6.17149267 15.9099782,6.81097936 15.1217647,6.81097936 C14.3335512,6.81097936 13.6938417,6.17149267 13.6938417,5.38192236 C13.6938417,4.59479907 14.3335512,3.9544967 15.1217647,3.9544967 C15.9099782,3.9544967 16.5496877,4.59479907 16.5496877,5.38192236" id="Fill-32" fill="#FFFFFF" mask="url(#mask-3)"></path>
                            <path d="M22.7640087,5.38192236 C22.7640087,6.17149267 22.1242992,6.81097936 21.3360857,6.81097936 C20.5478722,6.81097936 19.9081627,6.17149267 19.9081627,5.38192236 C19.9081627,4.59479907 20.5478722,3.9544967 21.3360857,3.9544967 C22.1242992,3.9544967 22.7640087,4.59479907 22.7640087,5.38192236" id="Fill-33" fill="#FFFFFF" mask="url(#mask-3)"></path>
                            <g id="Group-3" mask="url(#mask-3)">
                                <g transform="translate(40.740741, 38.635590)">
                                    <path d="M15.9913665,27.5162397 C15.9913665,29.0854563 14.7062358,30.371091 13.1355205,30.371091 L3.13720346,30.371091 C1.56744009,30.371091 0.28135742,29.0854563 0.28135742,27.5162397 L0.28135742,17.5214052 C0.28135742,15.951237 1.56744009,14.6665539 3.13720346,14.6665539 L13.1355205,14.6665539 C14.7062358,14.6665539 15.9913665,15.951237 15.9913665,17.5214052 L15.9913665,27.5162397" id="Fill-43" fill="#EDEDED"></path>
                                    <path d="M37.7281627,27.5162397 C37.7281627,29.0854563 36.443032,30.371091 34.8723166,30.371091 L24.8739996,30.371091 C23.3042363,30.371091 22.0181536,29.0854563 22.0181536,27.5162397 L22.0181536,17.5214052 C22.0181536,15.951237 23.3042363,14.6665539 24.8739996,14.6665539 L34.8723166,14.6665539 C36.443032,14.6665539 37.7281627,15.951237 37.7281627,17.5214052 L37.7281627,27.5162397" id="Fill-44" fill="#EDEDED"></path>
                                    <path d="M59.4640069,27.5162397 C59.4640069,29.0854563 58.1788762,30.371091 56.6081609,30.371091 L46.6098439,30.371091 C45.0400805,30.371091 43.7539978,29.0854563 43.7539978,27.5162397 L43.7539978,17.5214052 C43.7539978,15.951237 45.0400805,14.6665539 46.6098439,14.6665539 L56.6081609,14.6665539 C58.1788762,14.6665539 59.4640069,15.951237 59.4640069,17.5214052 L59.4640069,27.5162397" id="Fill-45" fill="#EDEDED"></path>
                                    <path d="M81.2008031,27.5162397 C81.2008031,29.0854563 79.9156724,30.371091 78.344957,30.371091 L68.34664,30.371091 C66.7768767,30.371091 65.490794,29.0854563 65.490794,27.5162397 L65.490794,17.5214052 C65.490794,15.951237 66.7768767,14.6665539 68.34664,14.6665539 L78.344957,14.6665539 C79.9156724,14.6665539 81.2008031,15.951237 81.2008031,17.5214052 L81.2008031,27.5162397" id="Fill-46" fill="#EDEDED"></path>
                                    <path d="M15.9913665,48.2140962 C15.9913665,49.7833128 14.7062358,51.0689475 13.1355205,51.0689475 L3.13720346,51.0689475 C1.56744009,51.0689475 0.28135742,49.7833128 0.28135742,48.2140962 L0.28135742,38.2192617 C0.28135742,36.6490935 1.56744009,35.3644104 3.13720346,35.3644104 L13.1355205,35.3644104 C14.7062358,35.3644104 15.9913665,36.6490935 15.9913665,38.2192617 L15.9913665,48.2140962" id="Fill-43" fill="#EDEDED"></path>
                                    <path d="M37.7281627,48.2140962 C37.7281627,49.7833128 36.443032,51.0689475 34.8723166,51.0689475 L24.8739996,51.0689475 C23.3042363,51.0689475 22.0181536,49.7833128 22.0181536,48.2140962 L22.0181536,38.2192617 C22.0181536,36.6490935 23.3042363,35.3644104 24.8739996,35.3644104 L34.8723166,35.3644104 C36.443032,35.3644104 37.7281627,36.6490935 37.7281627,38.2192617 L37.7281627,48.2140962" id="Fill-44" fill="#EDEDED"></path>
                                    <path d="M59.4640069,48.2140962 C59.4640069,49.7833128 58.1788762,51.0689475 56.6081609,51.0689475 L46.6098439,51.0689475 C45.0400805,51.0689475 43.7539978,49.7833128 43.7539978,48.2140962 L43.7539978,38.2192617 C43.7539978,36.6490935 45.0400805,35.3644104 46.6098439,35.3644104 L56.6081609,35.3644104 C58.1788762,35.3644104 59.4640069,36.6490935 59.4640069,38.2192617 L59.4640069,48.2140962" id="Fill-45" fill="#EDEDED"></path>
                                    <path d="M81.2008031,48.2140962 C81.2008031,49.7833128 79.9156724,51.0689475 78.344957,51.0689475 L68.34664,51.0689475 C66.7768767,51.0689475 65.490794,49.7833128 65.490794,48.2140962 L65.490794,38.2192617 C65.490794,36.6490935 66.7768767,35.3644104 68.34664,35.3644104 L78.344957,35.3644104 C79.9156724,35.3644104 81.2008031,36.6490935 81.2008031,38.2192617 L81.2008031,48.2140962" id="Fill-46" fill="#EDEDED"></path>
                                    <path d="M79.7898303,4.40212177 L1.3371402,4.40212177 C0.597701671,4.40212177 0,3.97579731 0,3.45050466 L0,1.31602749 C0,0.789783234 0.597701671,0.364410387 1.3371402,0.364410387 L79.7898303,0.364410387 C80.5279317,0.364410387 81.1269705,0.789783234 81.1269705,1.31602749 L81.1269705,3.45050466 C81.1269705,3.97579731 80.5279317,4.40212177 79.7898303,4.40212177 Z" id="Fill-47" fill="#FFFFFF"></path>
                                </g>
                            </g>
                        </g>
                        <path d="M114.973388,151.583744 L47.6719082,151.583744 C47.6719082,145.391403 52.694217,140.370843 58.8887156,140.370843 L103.756263,140.370843 C109.951079,140.370526 114.973388,145.391403 114.973388,151.583744" id="Shape" fill="#E0E0E0" fill-rule="nonzero"></path>
                        <polygon id="Shape" fill="#CECECE" fill-rule="nonzero" points="100.95222 140.370526 61.6930763 140.370526 67.30148 117.944725 95.3438163 117.944725"></polygon>
                        <path d="M152.830352,117.842608 L9.81494477,117.842608 C4.394282,117.842608 0,113.449856 0,108.031082 L0,95.4164893 L162.645296,95.4164893 L162.645296,108.031082 C162.645296,113.449856 158.251014,117.842608 152.830352,117.842608" id="Shape" fill="#E0E0E0" fill-rule="nonzero"></path>
                    </g>
                    <g id="004-smartphone" transform="translate(147.000000, 49.000000)">
                        <path d="M47.6583333,102.817535 L5.675,102.817535 C2.54166667,102.817535 0,100.267093 0,97.1229415 L0,5.69459353 C0,2.55044204 2.54166667,0 5.675,0 L47.6566667,0 C50.7916667,0 53.3333333,2.55044204 53.3333333,5.69459353 L53.3333333,97.1212691 C53.3333333,100.267093 50.7916667,102.817535 47.6583333,102.817535 Z" id="Shape" fill="#E0E0E0" fill-rule="nonzero"></path>
                        <ellipse id="Oval" fill="#FFFFFF" fill-rule="nonzero" cx="26.6666667" cy="94.45543" rx="5" ry="5.01726303"></ellipse>
                        <g id="Group-4" transform="translate(0.000000, 9.889098)">
                            <mask id="mask-5" fill="white">
                                <use xlink:href="#path-4"></use>
                            </mask>
                            <use id="Rectangle-path" fill="#FFFFFF" fill-rule="nonzero" xlink:href="#path-4"></use>
                            <rect id="Rectangle-7" fill="#6B73AC" mask="url(#mask-5)" x="0" y="-4.65369324" width="53.3333333" height="31.994141"></rect>
                            <g id="Group-3" mask="url(#mask-5)">
                                <g transform="translate(8.115942, 8.725675)">
                                    <path d="M15.6521739,37.8646596 C15.6521739,39.4340438 14.3717743,40.7198159 12.8068414,40.7198159 L2.84533247,40.7198159 C1.28134806,40.7198159 0,39.4340438 0,37.8646596 L0,27.8687575 C0,26.2984215 1.28134806,25.0136012 2.84533247,25.0136012 L12.8068414,25.0136012 C14.3717743,25.0136012 15.6521739,26.2984215 15.6521739,27.8687575 L15.6521739,37.8646596" id="Fill-43" fill="#EDEDED"></path>
                                    <path d="M37.6811594,37.8646596 C37.6811594,39.4340438 36.4007598,40.7198159 34.835827,40.7198159 L24.874318,40.7198159 C23.3103336,40.7198159 22.0289855,39.4340438 22.0289855,37.8646596 L22.0289855,27.8687575 C22.0289855,26.2984215 23.3103336,25.0136012 24.874318,25.0136012 L34.835827,25.0136012 C36.4007598,25.0136012 37.6811594,26.2984215 37.6811594,27.8687575 L37.6811594,37.8646596" id="Fill-44" fill="#EDEDED"></path>
                                    <path d="M15.6521739,58.6428559 C15.6521739,60.2122401 14.3717743,61.4980121 12.8068414,61.4980121 L2.84533247,61.4980121 C1.28134806,61.4980121 0,60.2122401 0,58.6428559 L0,48.6469537 C0,47.0766178 1.28134806,45.7917974 2.84533247,45.7917974 L12.8068414,45.7917974 C14.3717743,45.7917974 15.6521739,47.0766178 15.6521739,48.6469537 L15.6521739,58.6428559" id="Fill-45" fill="#EDEDED"></path>
                                    <path d="M37.6811594,58.6428559 C37.6811594,60.2122401 36.4007598,61.4980121 34.835827,61.4980121 L24.874318,61.4980121 C23.3103336,61.4980121 22.0289855,60.2122401 22.0289855,58.6428559 L22.0289855,48.6469537 C22.0289855,47.0766178 23.3103336,45.7917974 24.874318,45.7917974 L34.835827,45.7917974 C36.4007598,45.7917974 37.6811594,47.0766178 37.6811594,48.6469537 L37.6811594,58.6428559" id="Fill-46" fill="#EDEDED"></path>
                                    <path d="M37.2963181,11.6342331 L0.96455151,11.6342331 C0.431154525,11.6342331 0,11.203432 0,10.6747652 L0,8.52171937 C0,7.99209312 0.431154525,7.56225152 0.96455151,7.56225152 L37.2963181,7.56225152 C37.8287505,7.56225152 38.2608696,7.99209312 38.2608696,8.52171937 L38.2608696,10.6747652 C38.2608696,11.203432 37.8287505,11.6342331 37.2963181,11.6342331 Z" id="Fill-48" fill="#FFFFFF"></path>
                                    <path d="M37.2963181,4.07198159 L0.96455151,4.07198159 C0.431154525,4.07198159 0,3.64118052 0,3.11251373 L0,0.959467857 C0,0.4298416 0.431154525,0 0.96455151,0 L37.2963181,0 C37.8287505,0 38.2608696,0.4298416 38.2608696,0.959467857 L38.2608696,3.11251373 C38.2608696,3.64118052 37.8287505,4.07198159 37.2963181,4.07198159 Z" id="Fill-48" fill="#FFFFFF"></path>
                                </g>
                            </g>
                        </g>
                    </g>
                </g>
            </g>
        </g>
    </g>
</svg>