<?xml version="1.0" encoding="UTF-8"?>
<svg width="100%" height="100%" preserveAspectRatio="none" viewBox="0 0 1440 181" version="1.1" xmlns="http://www.w3.org/2000/svg" xmlns:xlink="http://www.w3.org/1999/xlink">
    <!-- Generator: Sketch 46.1 (44463) - http://www.bohemiancoding.com/sketch -->
    <title>Land/Wave</title>
    <desc>Created with Sketch.</desc>
    <defs></defs>
    <g id="Design" stroke="none" stroke-width="1" fill="none" fill-rule="evenodd">
        <g id="Services-/-UI/UX" transform="translate(0.000000, -2368.000000)">
            <g id="Land/Wave" transform="translate(720.000000, 2458.000000) scale(1, -1) translate(-720.000000, -2458.000000) translate(0.000000, 2368.000000)">
                <path d="M0,61 C104.064263,121.000749 242.73093,151.000749 416,151 C676.484436,151.001123 785.957927,8.18965585 1047,1.13686838e-13 C1198.90713,-2.01831838 1329.90713,18.315015 1440,61 L1440,161 L0,161 L0,61 Z" id="Rectangle-2" fill="#FFFFFF" opacity="0.120923913"></path>
                <path d="M0,62 C104.064263,108.526405 242.73093,131.859739 416,132 C584.182275,131.789608 679.084038,95.4802953 802,66 C869.271106,49.9885137 947.890974,33.3245784 1045,32 C1189.0155,30.4370939 1320.68217,40.4370939 1440,62 L1440,180 L0,180 L0,129 L0,62 Z" id="Rectangle-2-Copy" fill="#FAFAFA"></path>
                <path d="M417.122665,130.839497 C593.890542,130.839497 685.999226,92.5529091 812.292856,63.5496492 C871.839136,49.8748799 937.809827,33.8387748 1026,33 C939.962489,36.1387933 870.425639,53.703136 812.292856,67.244513 C652.751472,104.407881 571.955871,158.130533 417.122665,157.99975 C276.289031,157.880792 137.581476,125.520792 1,60.9197485 C105.006911,107.532914 243.714466,130.839497 417.122665,130.839497 Z" id="Rectangle-2-Copy-2" fill="#F1F1F1"></path>
            </g>
        </g>
    </g>
</svg>
