<?xml version="1.0" encoding="UTF-8"?>
<svg width="233px" height="188px" viewBox="0 0 233 188" version="1.1" xmlns="http://www.w3.org/2000/svg" xmlns:xlink="http://www.w3.org/1999/xlink">
    <!-- Generator: Sketch 46.1 (44463) - http://www.bohemiancoding.com/sketch -->
    <title>001-pen</title>
    <desc>Created with Sketch.</desc>
    <defs>
        <filter x="-15.8%" y="-12.6%" width="131.5%" height="140.6%" filterUnits="objectBoundingBox" id="filter-1">
            <feOffset dx="0" dy="12" in="SourceAlpha" result="shadowOffsetOuter1"></feOffset>
            <feGaussianBlur stdDeviation="8.5" in="shadowOffsetOuter1" result="shadowBlurOuter1"></feGaussianBlur>
            <feColorMatrix values="0 0 0 0 0.360784314   0 0 0 0 0.360784314   0 0 0 0 0.360784314  0 0 0 0.08 0" type="matrix" in="shadowBlurOuter1" result="shadowMatrixOuter1"></feColorMatrix>
            <feMerge>
                <feMergeNode in="shadowMatrixOuter1"></feMergeNode>
                <feMergeNode in="SourceGraphic"></feMergeNode>
            </feMerge>
        </filter>
        <path d="M140.82963,198.866733 L41.2282573,198.866733 L2.705164e-16,159.921869 L0,12.4291708 C0,5.3861035 5.70195524,0 13.158042,0 L140.82963,0 C148.285716,0 153.987672,5.3861035 153.987672,12.4291708 L153.987672,186.437562 C153.987672,193.48063 148.285716,198.866733 140.82963,198.866733 Z" id="path-2"></path>
    </defs>
    <g id="Design" stroke="none" stroke-width="1" fill="none" fill-rule="evenodd">
        <g id="Services-/-UI/UX" transform="translate(-219.000000, -1665.000000)">
            <g id="typography" transform="translate(235.000000, 1631.000000)">
                <g id="001-pen" filter="url(#filter-1)" transform="translate(0.000000, 39.000000)">
                    <g id="Group-7" transform="translate(100.192308, 77.307692) rotate(90.000000) translate(-100.192308, -77.307692) translate(23.192308, -22.192308)">
                        <mask id="mask-3" fill="white">
                            <use xlink:href="#path-2"></use>
                        </mask>
                        <use id="Shape" fill="#FFFFFF" fill-rule="nonzero" xlink:href="#path-2"></use>
                        <g id="Typo/letters" mask="url(#mask-3)">
                            <g transform="translate(77.439221, 99.534188) rotate(-90.000000) translate(-77.439221, -99.534188) translate(12.939221, 62.534188)">
                                <path d="M49.57178,58.980609 L24.2057947,58.980609 L19.7759761,72.5302083 L0,72.5302083 L28.1609899,0 L45.5638488,0 L73.9357825,72.5302083 L54.0543345,72.5302083 L49.57178,58.980609 Z M28.6356133,45.4808243 L45.1419613,45.4808243 L36.8624194,20.324399 L28.6356133,45.4808243 Z" id="Aa" fill="#E57675"></path>
                                <path d="M110.850938,72.5302083 C110.218103,71.4342794 109.655592,69.8236201 109.163388,67.6981821 C105.893743,71.5837484 101.323341,73.5265024 95.4520444,73.5265024 C90.072952,73.5265024 85.5025499,71.9905644 81.740701,68.9186423 C77.9788521,65.8467203 76.0979558,61.9861193 76.0979558,57.3367238 C76.0979558,51.4917693 78.3831569,47.0749098 82.9536275,44.0860126 C87.5240982,41.0971155 94.1687597,39.6026893 102.887811,39.6026893 L108.372349,39.6026893 L108.372349,36.7632512 C108.372349,31.8149659 106.104726,29.3408604 101.569413,29.3408604 C97.350517,29.3408604 95.2411007,31.3002191 95.2411007,35.2189954 L77.4690902,35.2189954 C77.4690902,30.0050304 79.8158159,25.7708229 84.5093377,22.516246 C89.2028594,19.2616691 95.1883283,17.634405 102.465924,17.634405 C109.743519,17.634405 115.491679,19.3114833 119.710575,22.6656901 C123.929471,26.0198969 126.091623,30.6194085 126.197095,36.464363 L126.197095,60.325606 C126.26741,65.2738913 127.07602,69.0597709 128.622948,71.6833584 L128.622948,72.5302083 L110.850938,72.5302083 Z M99.7236552,61.5709736 C101.938576,61.5709736 103.775526,61.1226457 105.234561,60.2259766 C106.693595,59.3293074 107.739514,58.3164186 108.372349,57.1872796 L108.372349,48.5693359 L103.204227,48.5693359 C97.0165129,48.5693359 93.9227023,51.1928841 93.9227023,56.4400591 C93.9227023,57.9677176 94.4676348,59.2047704 95.5575163,60.1512545 C96.6473977,61.0977386 98.0360968,61.5709736 99.7236552,61.5709736 Z" id="Path" fill="#6B73AC"></path>
                            </g>
                        </g>
                        <path d="M41.3413343,198.898971 L41.3413343,172.383278 C41.3413343,165.34021 35.639379,159.954107 28.1832923,159.954107 L0.113076923,159.954107 L41.3413343,198.898971 Z" id="Shape" fill="#EED5D3" fill-rule="nonzero" mask="url(#mask-3)"></path>
                    </g>
                </g>
            </g>
        </g>
    </g>
</svg>