<svg viewBox="0 0 23 34" xmlns="http://www.w3.org/2000/svg">
  <path d="M17.5785434 24.7818182l-.5027624 5.5709091C16.9416067 31.8563309 15.6938026 33.0061257 14.2028528 33H7.98296334c-1.49094974.0061257-2.73875387-1.1436691-2.87292818-2.6472727l-.50276243-5.5709091m.01436464-15.56363638l.50276243-5.57090909C5.25808903 2.14923572 6.49752078 1.00141661 7.98296334 1h6.24861876c1.4909498-.00612571 2.7387539 1.14366908 2.8729282 2.64727273l.5027624 5.57090909M11.1818182 27.1818182c5.6232629 0 10.1818182-4.5585553 10.1818182-10.1818182S16.8050811 6.81818182 11.1818182 6.81818182C5.55855527 6.81818182 1 11.3767371 1 17s4.55855527 10.1818182 10.1818182 10.1818182zm0-14.5454546V17l2.1818182 2.1818182" stroke="currentColor" stroke-width="2" fill="none" fill-rule="evenodd" stroke-linecap="round" stroke-linejoin="round"/>
</svg>
