<svg viewBox="0 0 32 32" xmlns="http://www.w3.org/2000/svg">
  <g fill="none" fill-rule="evenodd">
    <path d="M16 32C7.163 32 0 24.837 0 16S7.163 0 16 0c8.836 0 16 7.163 16 16s-7.164 16-16 16z" fill="#6A6A6A"/>
    <g fill-rule="nonzero" fill="#FFF">
      <path d="M19.148 9.3h-5.97C11.15 9.3 9.5 10.95 9.5 12.978v5.97c0 2.028 1.65 3.678 3.677 3.678h5.97c2.03 0 3.68-1.65 3.68-3.677v-5.972c0-2.028-1.65-3.678-3.68-3.678zm2.496 9.65c0 1.374-1.12 2.494-2.495 2.494h-5.973c-1.375 0-2.495-1.12-2.495-2.495v-5.972c0-1.376 1.12-2.496 2.495-2.496h5.97c1.377 0 2.497 1.12 2.497 2.496v5.97z"/>
      <path d="M16.163 12.53c-1.893 0-3.434 1.54-3.434 3.433 0 1.894 1.54 3.434 3.433 3.434 1.893 0 3.434-1.54 3.434-3.434 0-1.893-1.54-3.434-3.434-3.434zm0 5.684c-1.24 0-2.25-1.01-2.25-2.25 0-1.242 1.01-2.252 2.25-2.252 1.242 0 2.25 1.01 2.25 2.25 0 1.243-1.01 2.252-2.25 2.252zM19.74 11.527c-.227 0-.45.092-.612.254-.16.162-.254.385-.254.614 0 .228.093.452.254.613.16.16.385.254.613.254.23 0 .452-.092.614-.253.162-.16.254-.385.254-.613 0-.23-.092-.452-.254-.613-.16-.16-.385-.253-.613-.253z"/>
    </g>
  </g>
</svg>
