<svg viewBox="0 0 400 401" xmlns="http://www.w3.org/2000/svg">
	<path d="M54.5377039 290.927463c-15.1516837 0-28.0259884 5.304477-38.6338584 15.908457C5.30294005 317.438905 0 330.317512 0 345.469751c0 15.156219 5.29796543 28.031841 15.9038455 38.634826 10.60787 10.60398 23.4861544 15.908458 38.6338584 15.908458 15.1496938 0 28.0249935-5.304478 38.6308736-15.908458 10.6019005-10.602985 15.9048405-23.478607 15.9048405-38.634826 0-15.153234-5.30294-28.030846-15.9048405-38.633831-10.6028954-10.60398-23.478195-15.908457-38.6308736-15.908457zm125.5533241-71.024876c21.587841 21.404975 38.775137 45.928358 51.555919 73.58209 12.781777 27.649751 20.404878 56.630845 22.870297 86.926368.371106 5.301492-1.235694 9.847761-4.838311 13.640796-3.408606 3.981094-7.857902 5.966169-13.346893 5.966169h-38.34931c-4.733844 0-8.80308-1.564179-12.212681-4.696517-3.410597-3.119403-5.30294-7.047762-5.683001-11.78806-4.165743-43.367164-21.636592-80.442786-52.409563-111.214926-30.7709815-30.772139-67.8408208-48.247761-111.2055384-52.41592-4.734839-.374129-8.66379022-2.267662-11.78784871-5.679602C1.56103432 210.811045 0 206.738408 0 202.005075v-38.351244c0-5.491542 1.9868614-9.945274 5.96555882-13.350249 3.21658634-3.218905 7.28880658-4.829851 12.21268088-4.829851h1.4177654c30.2973978 2.461692 59.2735378 10.084577 86.9224499 22.870647 27.648913 12.78209 52.171777 29.968159 73.572573 51.558209zm185.770049 18.60597c20.261608 45.363184 31.630594 92.851742 34.089049 142.477612.371107 5.115423-1.328222 9.561194-5.117884 13.348259-3.415571 3.79403-7.763385 5.686567-13.06732 5.686567h-40.615745c-4.922879 0-9.139363-1.661692-12.645472-4.974129-3.50014-3.313433-5.341742-7.338309-5.535752-12.078607-2.270415-40.718408-11.83859-79.39403-28.692587-116.046766-16.853997-36.646767-38.773148-68.465672-65.753472-95.453732-26.986294-26.983084-58.799955-48.905472-95.442972-65.761194C96.43491 88.8518408 57.757275 79.1901493 17.0410426 76.7244776c-4.7348389-.1930348-8.75731299-2.0368159-12.07040686-5.5422885C1.65853678 67.6777114 0 63.5612935 0 58.8249751V18.2030846C0 12.899602 1.89333863 8.54039801 5.67902098 5.13442786 9.08862239 1.72447761 13.2543654.02 18.1782397.02h.8506592C68.6457132 2.48169154 116.130407 13.8478607 161.482981 34.1095522c45.357549 20.2656717 85.64298 48.1044777 120.868231 83.5213928 35.410308 35.227861 63.248256 75.519403 83.509865 120.877612z" fill-rule="nonzero" fill="currentColor"/>
</svg>
