<svg viewBox="0 0 32 32" xmlns="http://www.w3.org/2000/svg">
  <g fill="none" fill-rule="evenodd">
    <path d="M32 16c0 8.836-7.163 16-16 16S0 24.836 0 16 7.163 0 16 0s16 7.164 16 16" fill="#E0558B"/>
    <path d="M19.113 20.567c-.208-1.452-.562-2.77-.98-3.94 1.05-.157 2.175-.107 3.368.15-.244 1.568-1.134 2.923-2.387 3.79zm-6.585-.102c.332-.54.964-1.43 1.956-2.227.757-.608 1.578-1.052 2.46-1.335.464 1.263.84 2.693 1.027 4.275-.644.254-1.345.394-2.078.394-1.257 0-2.422-.412-3.364-1.107zm-2.316-4.573l.003-.195c.152.004.326.007.52.007.84 0 2.037-.052 3.344-.27.72-.12 1.396-.28 2.028-.478.132.265.26.54.386.827-1.148.38-2.068.948-2.77 1.51-1.008.812-1.693 1.706-2.103 2.34-.876-1-1.408-2.31-1.408-3.74zm3.128-5.073c.43.472 1.302 1.512 2.184 3.044-2 .58-4.06.64-5.136.622.41-1.603 1.504-2.937 2.952-3.667zm6.145.678c-.73.89-1.72 1.518-2.793 1.962-.12-.216-.24-.417-.354-.608-.672-1.11-1.32-1.944-1.777-2.48.428-.104.874-.16 1.332-.16 1.362 0 2.614.482 3.593 1.286zm.855.866c.704.887 1.15 1.988 1.22 3.188-1.468-.29-2.76-.273-3.876-.07-.14-.333-.285-.648-.432-.948 1.28-.546 2.32-1.275 3.088-2.17zM15.892 9C12.092 9 9 12.092 9 15.892c0 3.8 3.092 6.89 6.892 6.89 3.8 0 6.89-3.09 6.89-6.89S19.693 9 15.893 9z" fill="#FFFFFE"/>
  </g>
</svg>
