<svg viewBox="0 0 32 32" xmlns="http://www.w3.org/2000/svg">
  <g fill="none" fill-rule="evenodd">
    <path d="M32 16c0 8.836-7.163 16-16 16S0 24.836 0 16 7.163 0 16 0s16 7.164 16 16" fill="#445998"/>
    <g fill="#FFFFFE">
      <path d="M10.783 15.134l.04.002c.653 0 1.308.004 1.962 0 .3-.004.588-.053.86-.196.197-.104.323-.265.383-.48.05-.183.055-.368.032-.555-.04-.352-.247-.592-.585-.685-.3-.084-.607-.112-.915-.112-.573-.003-1.147 0-1.72 0h-.057v2.026zm0 3.974l.05.003c.645.002 1.29.006 1.934-.002.196-.002.393-.02.585-.058.46-.093.756-.372.865-.836.04-.17.047-.343.04-.516-.02-.444-.258-.77-.676-.92-.212-.077-.436-.11-.66-.113-.703-.005-1.406-.004-2.108-.005l-.03.005v2.443zM8.66 20.706v-9.19l.045-.006c1.49 0 2.98-.004 4.47.003.49.002.97.078 1.422.28.738.33 1.163.9 1.28 1.698.06.426.037.845-.11 1.253-.147.414-.43.713-.807.93l-.175.1.08.03c.715.29 1.14.82 1.283 1.572.113.613.058 1.214-.222 1.78-.407.817-1.062 1.305-1.967 1.457-.39.065-.78.096-1.172.096-1.35-.002-2.7-.002-4.048-.002h-.08zM21.648 16.473l.002-.03-.023-.19c-.086-.505-.358-.866-.836-1.064-.246-.103-.506-.124-.77-.107-.547.035-.94.302-1.165.802-.06.134-.096.28-.14.42l-.03.168h2.963zm1.79 1.14h-4.797c.01.097.018.19.03.283.024.186.07.366.153.535.215.448.584.69 1.058.783.268.054.537.054.804-.002.395-.084.685-.31.878-.662l.09-.052c.544.002 1.088.002 1.633.002h.07c-.02.09-.037.178-.062.26-.1.335-.297.61-.524.868-.495.56-1.125.866-1.855.974-.578.084-1.152.07-1.717-.09-.588-.17-1.11-.46-1.532-.906-.342-.36-.538-.8-.64-1.28-.18-.846-.182-1.693.074-2.522.364-1.172 1.178-1.86 2.374-2.082.74-.14 1.472-.074 2.175.215.652.27 1.105.747 1.42 1.365.205.402.316.83.343 1.28.02.327.02.656.03.985l-.004.047zM18.308 12.954v-1.06h3.696v1.06h-3.696"/>
    </g>
  </g>
</svg>
