<svg viewBox="0 0 33 34" xmlns="http://www.w3.org/2000/svg">
  <path d="M12 28.4982564C4.142857 30.7473845 4.142857 24.7497094 1 24m22.444481 9v-5.8896285c.11804-1.4679978-.414568-2.9148135-1.462216-3.972075C26.866689 22.6056427 32 20.79462 32 12.4852217c-.000399-2.1247908-.835809-4.1680935-2.333323-5.7070044.709106-1.8589516.658967-3.9137124-.14-5.7374417 0 0-1.835547-.5326538-6.082196 2.2523644-3.565304-.9453512-7.323538-.9453512-10.888842 0C8.30899.5081218 6.473442 1.0407756 6.473442 1.0407756c-.798967 1.8237293-.849105 3.8784901-.139999 5.7374417-1.508685 1.5503263-2.344955 3.6120969-2.333323 5.7526604 0 8.2485236 5.133311 10.0595463 10.017735 10.6530748-1.035032 1.0463809-1.566638 2.4738773-1.462216 3.926419V33" stroke="currentColor" stroke-width="2" fill="none" fill-rule="evenodd" stroke-linecap="round" stroke-linejoin="round"/>
</svg>
