<svg viewBox="0 0 32 32" xmlns="http://www.w3.org/2000/svg">
  <g fill="none" fill-rule="evenodd">
    <path d="M16.5 29C9.596 29 4 23.404 4 16.5S9.596 4 16.5 4C23.403 4 29 9.596 29 16.5S23.403 29 16.5 29z" fill="#FFFFFE"/>
    <path d="M16 0C7.163 0 0 7.163 0 16s7.164 16 16 16c8.837 0 16-7.163 16-16S24.837 0 16 0zm2.067 18.96c.333.29.592 1.308.592 1.776v4.144h-4.734s.007-1.405 0-2.368c-3.24.697-4.144-1.776-4.144-1.776-.592-1.184-1.184-1.776-1.184-1.776-1.184-.703 0-.592 0-.592 1.184 0 1.776 1.184 1.776 1.184 1.04 1.764 2.888 1.48 3.552 1.184 0-.592.26-1.487.592-1.776-2.586-.29-4.738-1.776-4.738-4.736s.594-3.552 1.186-4.144c-.12-.292-.615-1.37.018-2.96 0 0 1.163 0 2.347 1.776.588-.587 2.37-.592 2.962-.592.59 0 2.373.005 2.96.592C20.434 7.12 21.6 7.12 21.6 7.12c.632 1.59.137 2.668.017 2.96.59.592 1.183 1.184 1.183 4.144s-2.15 4.445-4.736 4.736z" fill="#000" fill-rule="nonzero"/>
  </g>
</svg>
