<svg viewBox="0 0 32 32" xmlns="http://www.w3.org/2000/svg">
  <g fill="none" fill-rule="evenodd">
    <path d="M32 16c0 8.837-7.163 16-16 16S0 24.837 0 16C0 7.164 7.163 0 16 0s16 7.164 16 16" fill="#4D6CA6"/>
    <path d="M18.23 11.234c.43-.014.86-.003 1.293-.003h.177V8.99c-.23-.022-.47-.055-.712-.067-.44-.02-.883-.042-1.326-.032-.674.015-1.313.18-1.87.58-.64.46-.99 1.107-1.125 1.87-.055.315-.07.64-.08.96-.01.503 0 1.005 0 1.51v.187h-2.143v2.5h2.13v6.29h2.604v-6.278H19.3c.11-.833.216-1.657.328-2.515h-.477c-.603.003-1.99 0-1.99 0s.007-1.24.02-1.778c.023-.736.46-.96 1.05-.983" fill="#FFFFFE"/>
  </g>
</svg>
