<svg viewBox="0 0 53 43" xmlns="http://www.w3.org/2000/svg">
  <g fill-rule="nonzero" fill="currentColor">
    <path d="M51.2885906 28.7449664l-2.2818792 2.2818792V8.0067114C49.0067114 7.46979867 48.5369128 7 48 7c-.5369128 0-1.0067114.46979866-1.0067114 1.0067114v23.0872483l-2.2818792-2.2818792c-.4026846-.4026845-1.0067114-.4026845-1.409396 0-.4026845.4026846-.4026845 1.0067114 0 1.409396l4.0268457 4.0268456c.0671141.0671141.2013422.2013423.3355704.2013423.1342282.0671141.2684564.0671141.3355705.0671141.0671141 0 .2684564 0 .3355705-.0671141.1342282-.0671141.2013423-.1342282.3355704-.2013423l4.0268457-4.0268456c.4026845-.4026846.4026845-1.0067114 0-1.409396-.4026846-.4026845-1.0067114-.4026845-1.409396-.0671141zM14.9999981 0c-.690975 0-1.381885.1782256-2 .5351562-1.236218.7138549-1.999987 2.0372733-2 3.4648438v21.164062l-3.181641-4.146484-1.585937 1.216797 4.974609 6.484375c.2610144.3395097.7092244.4751553 1.1146929.337349.4054686-.1378063.6781985-.5184772.6782761-.946724V4c.000007-.7163758.379829-1.3743035 1-1.7324219.620177-.3581217 1.379823-.3581217 2 0 .620171.3581184.999993 1.0160461 1 1.7324219v19c-.0051003.3606359.1843753.6960814.4958728.8778877.3114976.1818064.6967568.1818064 1.0082543 0 .3114976-.1818063.5009732-.5172518.4958729-.8778877v-6.003906c-.000005-.713833.37968-1.370953 1-1.728516.620315-.357561 1.379685-.357561 2 0 .62032.357563 1.000005 1.014683 1 1.728516V22c-.0051003.3606359.1843753.6960814.4958728.8778877.3114976.1818064.6967568.1818064 1.0082543 0 .3114976-.1818063.5009732-.5172518.4958729-.8778877v-4.001953c-.000005-.713833.37968-1.370952 1-1.728516.620315-.357561 1.379685-.357561 2 0 .62032.357564 1.000005 1.014683 1 1.728516V21c-.0051003.3606359.1843753.6960814.4958728.8778877.3114976.1818064.6967568.1818064 1.0082543 0 .3114976-.1818063.5009732-.5172518.4958729-.8778877v-2.001953c-.000005-.713833.37968-1.370952 1-1.728516.620315-.357561 1.379685-.357561 2 0 .62032.357564 1.000005 1.014683 1 1.728516V28c.000044 5.573206-3.543019 10.519088-8.820312 12.310547-5.277289 1.791427-11.101488.02503-14.494141-4.396485l-8.6269532-11.24414h-.0019532c-.4359339-.568163-.5352494-1.321501-.2617187-1.982422.2735355-.660931.8768019-1.123634 1.5859375-1.216797.7091466-.09316 1.4097576.197443 1.8457026.765625l1.585938-1.216797c-.868671-1.132168-2.278677-1.717098-3.6933594-1.53125-1.4146606.185851-2.6262443 1.115212-3.171875 2.433594-.5456212 1.318361-.3452109 2.832714.5234375 3.964844l8.6289059 11.246093c3.90967 5.09532 10.641116 7.136704 16.722657 5.072266C32.9038101 40.140603 37.0000481 34.422503 36.9999981 28v-9.001953c.00001-1.426313-.763901-2.748428-2-3.460938-.618046-.356252-1.309326-.535156-2-.535156s-1.381954.178904-2 .535156c-.206017.118752-.393832.259878-.572266.410157-.344052-.574263-.828575-1.06479-1.427734-1.410157-.618046-.356252-1.309326-.535156-2-.535156s-1.381954.178904-2 .535156c-.205584.118503-.392193.260254-.570312.410157-.344128-.575268-.829722-1.066278-1.429688-1.41211-.618046-.356252-1.309326-.535156-2-.535156s-1.381954.178904-2 .535156V4c-.0000349-.04639453-.0032981-.0927304-.009766-.1386719-.048109-1.3736819-.794512-2.6357013-1.990234-3.3261719C16.3818831.1782256 15.6909731 0 14.9999981 0z"/>
  </g>
</svg>
