<svg viewBox="0 0 32 32" xmlns="http://www.w3.org/2000/svg">
  <g fill="none" fill-rule="evenodd">
    <path d="M32 16c0 8.837-7.163 16-16 16S0 24.837 0 16C0 7.164 7.163 0 16 0s16 7.164 16 16" fill="#257BB3"/>
    <g fill="#FFFFFE">
      <path d="M11.094 9.034c.898 0 1.628.73 1.628 1.627 0 .9-.73 1.63-1.628 1.63-.902 0-1.63-.73-1.63-1.63 0-.896.728-1.626 1.63-1.626zM9.687 22.557H12.5v-9.033H9.686v9.033zM14.26 13.524h2.694v1.234h.038c.375-.71 1.29-1.46 2.658-1.46 2.842 0 3.367 1.87 3.367 4.304v4.954H20.21v-4.39c0-1.05-.02-2.397-1.458-2.397-1.462 0-1.685 1.14-1.685 2.317v4.47H14.26v-9.033"/>
    </g>
  </g>
</svg>
