<svg viewBox="0 0 34 34" xmlns="http://www.w3.org/2000/svg">
  <g fill="none" fill-rule="evenodd" stroke-linecap="round" stroke-linejoin="round" stroke="currentColor" stroke-width="2" transform="translate(1 1)">
    <circle cx="16" cy="16" r="4.36363636"/>
    <path d="M26.7636364 20.3636364c-.3961403.8975855-.2060595 1.9459102.48 2.6472727l.0872727.0872727c.5462605.5456531.8531975 1.2860822.8531975 2.0581818 0 .7720997-.306937 1.5125287-.8531975 2.0581819-.5456531.5462604-1.2860822.8531975-2.0581818.8531975-.7720997 0-1.5125287-.3069371-2.0581818-.8531975l-.0872728-.0872728c-.7013625-.6860594-1.7496871-.8761403-2.6472727-.48-.87923.3768266-1.4507303 1.2397921-1.4545455 2.1963637v.2472727C19.0254545 30.6975556 17.7230102 32 16.1163636 32c-1.6066465 0-2.9090909-1.3024444-2.9090909-2.9090909V28.96c-.0230449-.9852061-.6460047-1.8561961-1.5709091-2.1963636-.8975855-.3961403-1.94591017-.2060595-2.6472727.48l-.08727272.0872727c-.5456531.5462605-1.2860822.8531975-2.05818182.8531975-.77209963 0-1.5125287-.306937-2.0581818-.8531975-.5462605-.5456531-.85319756-1.2860822-.85319756-2.0581818 0-.7720997.30693706-1.5125287.85319755-2.0581818l.08727272-.0872728c.68605946-.7013625.8761403-1.7496871.48-2.6472727-.3768266-.87923-1.2397921-1.4507303-2.19636363-1.4545455H2.9090909C1.30244437 19.0254545 0 17.7230102 0 16.1163636c0-1.6066465 1.30244436-2.9090909 2.9090909-2.9090909H3.04c.98520608-.0230449 1.8561961-.6460047 2.19636364-1.5709091.3961403-.8975855.20605945-1.94591017-.48-2.6472727L4.6690909 8.9018182c-.54626048-.5456531-.85319754-1.2860822-.85319754-2.05818182 0-.77209963.30693706-1.5125287.85319755-2.0581818.54565312-.5462605 1.2860822-.85319756 2.05818183-.85319756s1.5125287.30693706 2.05818182.85319755l.08727272.08727272c.70136253.68605946 1.74968713.8761403 2.64727273.48h.1163636c.87923-.3768266 1.4507304-1.2397921 1.4545455-2.19636363V2.9090909C13.0909091 1.30244437 14.3933535 0 16 0c1.6066465 0 2.9090909 1.30244436 2.9090909 2.9090909V3.04c.0038151.95657152.5753155 1.81953704 1.4545455 2.19636364.8975855.3961403 1.9459102.20605945 2.6472727-.48l.0872727-.08727273c.5456531-.54626048 1.2860822-.85319754 2.0581818-.85319754.7720997 0 1.5125287.30693706 2.0581819.85319755.5462604.54565312.8531975 1.2860822.8531975 2.05818183s-.3069371 1.5125287-.8531975 2.05818182l-.0872728.08727272c-.6860594.70136253-.8761403 1.74968713-.48 2.64727273v.1163636c.3768266.87923 1.2397921 1.4507304 2.1963637 1.4545455h.2472727C30.6975556 13.0909091 32 14.3933535 32 16c0 1.6066465-1.3024444 2.9090909-2.9090909 2.9090909H28.96c-.9565715.0038151-1.819537.5753155-2.1963636 1.4545455z"/>
  </g>
</svg>
