<?xml version="1.0" encoding="UTF-8"?>
<svg width="32px" height="34px" viewBox="0 0 32 34" version="1.1" xmlns="http://www.w3.org/2000/svg" xmlns:xlink="http://www.w3.org/1999/xlink">
    <!-- Generator: Sketch 46.1 (44463) - http://www.bohemiancoding.com/sketch -->
    <title>Shape</title>
    <desc>Created with Sketch.</desc>
    <defs></defs>
    <g id="Design" stroke="none" stroke-width="1" fill="none" fill-rule="evenodd" stroke-linecap="round" opacity="0.2" stroke-linejoin="round">
        <g id="Services-/-Vue" transform="translate(-321.000000, -2248.000000)" stroke="#363537" stroke-width="2">
            <g id="InventiStudio-+-Vue.js-=" transform="translate(0.000000, 1769.000000)">
                <g id="Cards" transform="translate(152.000000, 413.000000)">
                    <g id="Libs" transform="translate(0.000000, 19.000000)">
                        <path d="M181,75.4982564 C173.142857,77.7473845 173.142857,71.7497094 170,71 M191.444481,80 L191.444481,74.1103715 C191.562521,72.6423737 191.029913,71.195558 189.982265,70.1382965 C194.866689,69.6056427 200,67.79462 200,59.4852217 C199.999601,57.3604309 199.164191,55.3171282 197.666677,53.7782173 C198.375783,51.9192657 198.325644,49.8645049 197.526677,48.0407756 C197.526677,48.0407756 195.69113,47.5081218 191.444481,50.29314 C187.879177,49.3477888 184.120943,49.3477888 180.555639,50.29314 C176.30899,47.5081218 174.473442,48.0407756 174.473442,48.0407756 C173.674475,49.8645049 173.624337,51.9192657 174.333443,53.7782173 C172.824758,55.3285436 171.988488,57.3903142 172.00012,59.5308777 C172.00012,67.7794013 177.133431,69.590424 182.017855,70.1839525 C180.982823,71.2303334 180.451217,72.6578298 180.555639,74.1103715 L180.555639,80" id="Shape"></path>
                    </g>
                </g>
            </g>
        </g>
    </g>
</svg>