<?xml version="1.0" encoding="UTF-8"?>
<svg width="39px" height="39px" viewBox="0 0 39 39" version="1.1" xmlns="http://www.w3.org/2000/svg" xmlns:xlink="http://www.w3.org/1999/xlink">
    <!-- Generator: Sketch 46.1 (44463) - http://www.bohemiancoding.com/sketch -->
    <title>rocket</title>
    <desc>Created with Sketch.</desc>
    <defs></defs>
    <g id="Design" stroke="none" stroke-width="1" fill="none" fill-rule="evenodd">
        <g id="Services-/-Vue" transform="translate(-900.000000, -2036.000000)" fill-rule="nonzero">
            <g id="InventiStudio-+-Vue.js-=" transform="translate(0.000000, 1769.000000)">
                <g id="IS/title" transform="translate(502.000000, 257.000000)">
                    <g id="rocket" transform="translate(398.000000, 10.000000)">
                        <path d="M12.1303929,27.4867976 C13.8370298,29.1934345 13.8370298,31.997256 12.1303929,33.7039702 C10.423756,35.4106071 5.39515476,37.6353869 3.68851786,35.92875 C1.98188095,34.2221131 4.20658333,29.1935119 5.91329762,27.486875 C7.61993452,25.7801607 10.3932679,25.7801607 12.1303929,27.4867976 Z" id="Shape" fill="#FFD463"></path>
                        <path d="M7.04089286,26.6639286 L7.04089286,26.8467798 C7.04089286,30.0163036 9.631375,32.6067857 12.8008988,32.6067857 L12.9227738,32.6067857 C13.776131,30.9610476 13.5018155,28.8887083 12.0999048,27.4867976 C10.7589702,26.115375 8.68663095,25.8410595 7.04089286,26.6639286 Z" id="Shape" fill="#DEB957"></path>
                        <path d="M21.0904107,17.91725 C26.3018631,23.1287024 27.337994,30.534369 22.4008571,35.471506 L20.0542024,37.8181607 C15.1170655,42.7552976 18.5304167,30.9000714 13.3189643,25.688619 C8.1075119,20.4771667 -3.77820238,23.921006 1.18942262,18.953381 L3.53607738,16.6067262 C8.47329167,11.6696667 15.8789583,12.705875 21.0904107,17.91725 L21.0904107,17.91725 Z" id="Shape" fill="#F8188E"></path>
                        <path d="M38.3399405,0.667720238 C39.9247024,2.25248214 39.2237857,12.3096071 29.501875,22.062006 C23.1628274,28.3705655 19.1704345,30.5953452 19.1704345,30.5953452 C14.9342143,33.4601429 12.8923631,31.5096012 10.2104167,28.8277321 C7.52847024,26.1458631 5.54759524,24.1039345 8.44280357,19.8677143 C8.44280357,19.8677143 10.6980714,15.8448333 17.006631,9.50578571 C26.7284643,-0.216047619 36.7551786,-0.947452381 38.3399405,0.667720238 L38.3399405,0.667720238 Z" id="Shape" fill="#FFFFFF"></path>
                        <path d="M20.8465833,29.2239226 C16.4275119,32.1801071 14.2941964,30.1686667 11.5208631,27.3953333 C8.71704167,24.5915119 6.6751131,22.4886845 9.69227381,18.0696131 L10.1494405,17.3382083 C8.96086905,18.9534583 8.44280357,19.8677143 8.44280357,19.8677143 C5.54759524,24.1039345 7.52854762,26.1457857 10.2104167,28.8277321 C12.8922857,31.5096786 14.9342143,33.4296548 19.1704345,30.5953452 C19.1704345,30.5953452 21.0599226,29.5286488 24.3209107,26.8162917 C22.096131,28.523006 20.8465833,29.2239226 20.8465833,29.2239226 Z" id="Shape" fill="#DFDFDF"></path>
                        <path d="M28.130375,10.8772857 C29.6236726,12.3705833 29.6236726,14.7782143 28.130375,16.2715893 C26.6370774,17.7648869 24.2294464,17.7648869 22.7360714,16.2715893 C21.2427738,14.7782917 21.2427738,12.3706607 22.7360714,10.8772857 C24.229369,9.38391071 26.6675655,9.38391071 28.130375,10.8772857 Z" id="Shape" fill="#8BA0AB"></path>
                        <path d="M19.3227976,20.324881 C20.0846905,21.0867738 18.621881,23.799131 14.9037262,27.5172857 C11.1855714,31.2354405 8.93038095,32.2410833 8.1684881,31.4487024 C7.40659524,30.6868095 8.38182738,28.4315417 12.0999048,24.7134643 C15.8484702,20.9953869 18.5304167,19.5325 19.3227976,20.324881 Z" id="Shape" fill="#F8188E"></path>
                        <path d="M29.0142202,1.42969048 C29.2885357,3.47161905 30.3856429,5.63542262 32.183744,7.43352381 C33.768506,8.98779762 35.5970952,10.024006 37.3951964,10.4506845 C39.4065595,5.45249405 39.2541964,1.61254167 38.3399405,0.667720238 C37.4560952,-0.246535714 33.798994,-0.39889881 29.0142202,1.42969048 Z" id="Shape" fill="#C8C8C8"></path>
                    </g>
                </g>
            </g>
        </g>
    </g>
</svg>