<svg viewBox="0 0 33 33" xmlns="http://www.w3.org/2000/svg">
  <g fill-rule="nonzero" fill="currentColor">
    <path d="M.96969697 15.5454545c9.10433043 0 16.48484853 7.3805181 16.48484853 16.4848485 0 .5355489.4341481.969697.9696969.969697.5355489 0 .969697-.4341481.969697-.969697 0-10.1754281-8.2488143-18.4242424-18.42424243-18.4242424-.53554885 0-.96969697.4341481-.96969697.969697 0 .5355488.43414812.9696969.96969697.9696969zM.96969697 1.96969697c16.60201433 0 30.06060603 13.45859173 30.06060603 30.06060603 0 .5355489.4341482.969697.969697.969697s.969697-.4341481.969697-.969697C32.969697 14.357191 18.642809.03030303.96969697.03030303.43414812.03030303 0 .46445115 0 1s.43414812.96969697.96969697.96969697zM2.90909091 33C1.30244436 33 0 31.6975556 0 30.0909091c0-1.6066466 1.30244436-2.9090909 2.90909091-2.9090909 1.60664654 0 2.90909091 1.3024443 2.90909091 2.9090909C5.81818182 31.6975556 4.51573745 33 2.90909091 33zm0-1.9393939c.53554885 0 .96969697-.4341482.96969697-.969697 0-.5355489-.43414812-.969697-.96969697-.969697s-.96969697.4341481-.96969697.969697c0 .5355488.43414812.969697.96969697.969697z"/>
  </g>
</svg>
