<svg viewBox="0 0 60 56" xmlns="http://www.w3.org/2000/svg">
  <path d="M18.2 0C8.2571429 0 .20000005 7.97575758.20000005 17.8181818v20.3636364C.20000005 48.0242425 8.2571429 56 18.2 56c9.9428572 0 18-7.9757575 18-17.8181818V17.8181818C36.2 7.97575758 28.1428572 0 18.2 0zm14.9999998 38.7142857c0 7.8571429-6.75 14.2857143-15 14.2857143s-15-6.4285714-15-14.2857143V17.2857143c0-7.85714287 6.75-14.2857143 15-14.2857143s15 6.42857143 15 14.2857143v21.4285714zM18.2000008 10.4c-.84 0-1.5.9211382-1.5 2.093496v6.1130082c0 1.1723578.66 2.093496 1.5 2.093496s1.5-.9211382 1.5-2.093496V12.493496c0-1.0886179-.66-2.093496-1.5-2.093496zm38.9457308 29.2341463l-3.109756 3.1097562V11.3719512C54.0359756 10.640244 53.3957317 10 52.6640244 10c-.7317074 0-1.3719512.640244-1.3719512 1.3719512v31.4634147l-3.1097561-3.1097562c-.5487805-.5487805-1.3719512-.5487805-1.9207317 0-.5487806.5487805-.5487806 1.3719513 0 1.9207318l5.4878049 5.4878049c.0914634.0914634.2743902.2743902.457317.2743902C52.3896341 47.5 52.572561 47.5 52.6640244 47.5c.0914634 0 .3658536 0 .4573171-.0914634.1829267-.0914635.2743902-.1829268.457317-.2743902l5.4878048-5.4878049c.5487806-.5487805.5487806-1.3719513 0-1.9207318-.5487804-.5487805-1.3719512-.5487805-1.9207317-.0914634z" fill-rule="nonzero" fill="currentColor"/>
</svg>
