<?xml version="1.0" encoding="UTF-8"?>
<svg width="100%" height="100%" preserveAspectRatio="none" viewBox="0 0 1440 236" version="1.1" xmlns="http://www.w3.org/2000/svg" xmlns:xlink="http://www.w3.org/1999/xlink">
    <!-- Generator: Sketch 46.1 (44463) - http://www.bohemiancoding.com/sketch -->
    <title>Wave</title>
    <desc>Created with Sketch.</desc>
    <defs></defs>
    <g id="Design" stroke="none" stroke-width="1" fill="none" fill-rule="evenodd">
        <g id="Services-/-Node" transform="translate(0.000000, -1769.000000)">
            <g id="InventiStudio-+-Vue.js-=" transform="translate(0.000000, 1769.000000)">
                <g id="Wave" transform="translate(0.000000, -15.000000)">
                    <path d="M2.27373675e-13,14 L1440,14 C1400.94459,90.4409351 1363.27793,128.774268 1327,129 C1209.32758,128.661403 1131.22725,0.993409852 1051,1 C917.644589,1.01086196 908.81119,144.65387 828,147 C763.368009,149.688119 745.039066,63.2806743 697,31 C671.017425,13.4370744 618.002643,30.6677763 585,48 C490.805014,98.4090523 447.280314,304.861749 317,160 C315.387153,158.782302 313.88387,167.184153 312,166 C225.480209,77.1407104 121.480209,96.4740437 2.27373675e-13,224 L2.27373675e-13,14 Z" id="Rectangle-11-Copy-2" fill="#FFFFFF" opacity="0.0503849638"></path>
                    <path d="M0,14 L1310,14 C1255.26438,103.118919 1188.93104,140.118919 1111,125 C994.668373,101.674797 1033.3654,14.0067253 946,14 C937.721643,14.0067253 874.596233,13.9915934 867,14 C733.668383,14.2573493 714.046951,163.342687 613,163 C541.31472,163.342687 516.55651,35.9033947 469,30 C450.542586,27.3155086 391.89962,91.4340911 358,109 C238.119348,170.984973 206.522144,262.519649 146,211 C86.0501214,158.933673 109.993293,124.676588 0,140 C-2.21779441e-13,103.170344 -2.21779441e-13,61.1703444 0,14 Z" id="Rectangle-11" fill="#294060" opacity="0.196671196"></path>
                    <path d="M-1.47792889e-12,14 L1440,14 C1385.93864,87.0860643 1319.6053,123.752731 1241,124 C1123.65698,123.629096 1061.00001,31.1558154 980,31 C847.456769,31.173267 820.724464,175.805516 720,176 C619.275536,175.805516 551.817753,58.9531411 458,109 C363.748761,159.128619 378.835816,300.017105 230,233 C123.697673,186.084839 59.8370196,123.629096 -1.47792889e-12,180 C-1.98682949e-12,143.085354 -1.98682949e-12,87.7520203 -1.47792889e-12,14 Z" id="Rectangle-11-Copy-3" fill="#FFFFFF" opacity="0.175215127"></path>
                    <path d="M7.95807864e-13,14 L1440,14 C1387.84693,74.0630564 1322.5136,104.063056 1244,104 C1126.51942,104.094585 1061.00001,31.1661195 980,31 C847.456769,31.1835817 820.724464,149.509366 720,150 C619.275536,149.509366 551.817753,58.980141 458,109 C363.748761,159.215787 373.601069,282.277604 225,216 C118.462926,168.276908 107.83106,118.502973 7.95807864e-13,180 C1.40213767e-12,163.757319 1.40213767e-12,108.423985 7.95807864e-13,14 Z" id="Rectangle-11-Copy" fill="#5EC3F1"></path>
                    <path d="M-1.8189894e-12,14 L1440,14 C1387.84693,73.9775928 1322.5136,103.977593 1244,104 C1126.51942,103.966389 1057.8009,13.9934154 977,14 C844.257659,14.0108528 820.724464,149.31655 720,149 C619.275536,149.31655 553.984456,34.6969763 460,85 C365.915463,134.789997 382.03023,266.081266 233,200 C126.892087,152.242782 65.2777552,149.31655 -1.8189894e-12,180 C-2.30034212e-12,152.661371 -2.30034212e-12,97.3280374 -1.8189894e-12,14 Z" id="Rectangle-11" fill="#FAFAFA"></path>
                </g>
            </g>
        </g>
    </g>
</svg>
