<svg viewBox="0 0 80 80" xmlns="http://www.w3.org/2000/svg"><defs><radialGradient cy="28.295%" fx="50%" fy="28.295%" r="115.534%" gradientTransform="matrix(0 1 -.5829 0 .665 -.217)" id="a"><stop stop-color="#FD7C00" offset="0%"/><stop stop-color="#F35300" offset="100%"/></radialGradient><radialGradient cy="2.498%" fx="50%" fy="2.498%" r="82.826%" gradientTransform="matrix(0 .98625 -1 0 .525 -.468)" id="b"><stop stop-color="#FDCE21" offset="0%"/><stop stop-color="#FDA500" offset="100%"/></radialGradient><linearGradient x1="79.592%" y1="81.25%" x2="30.854%" y2="50%" id="c"><stop stop-color="#FDD12B" offset="0%"/><stop stop-color="#FDC003" offset="100%"/></linearGradient><radialGradient cy="0%" fx="50%" fy="0%" r="100%" gradientTransform="matrix(0 1 -.56303 0 .5 -.5)" id="d"><stop stop-color="#FEF3CB" offset="0%"/><stop stop-color="#FEDD67" offset="100%"/></radialGradient><linearGradient x1="100%" y1="50%" x2="0%" y2="50%" id="e"><stop stop-color="#FC8900" offset="0%"/><stop stop-color="#FCAA00" offset="100%"/></linearGradient></defs><g fill="none" fill-rule="evenodd"><rect fill="#100E30" width="80" height="80" rx="40"/><path transform="rotate(-180 34 33.458)" d="M27.6 0l27.6 32.177H0" fill="url(#a)"/><path fill="#FDCA0D" d="M40.4 66.915L23.974 34.738h32.852"/><path fill="url(#b)" transform="rotate(-180 28.413 33.458)" d="M16.426 0l15.867 32.177H.56"/><path transform="rotate(-180 20.2 17.37)" d="M15.644 16.257L16.426 0 0 17.938" fill="url(#c)"/><path transform="matrix(1 0 0 -1 40.4 34.738)" d="M15.644 16.257L16.426 0 0 17.938" fill="url(#c)"/><path fill="#FEFBED" d="M40.4 16.8L23.974 34.738h32.852"/><path fill="url(#d)" transform="rotate(-180 28.413 17.145)" d="M16.426 17.49L31.958 0H.894"/><g><path fill="#FEE693" d="M24.756 18.482l-6.145 8.184-5.81 8.072h11.733"/><path fill="url(#e)" transform="rotate(-180 12.378 17.37)" d="M0 16.257L11.956 0 .782.448"/></g><g><path fill="#FEE693" d="M56.044 18.482l6.145 8.184L68 34.738H56.267"/><path fill="url(#e)" transform="matrix(1 0 0 -1 56.044 34.738)" d="M0 16.257L11.956 0 .782.448"/></g></g></svg>
