<svg viewBox="0 0 80 80" xmlns="http://www.w3.org/2000/svg"><g fill="none" fill-rule="evenodd"><rect fill="#2B3A42" width="80" height="80" rx="40"/><g fill-rule="nonzero"><path fill="#FFF" d="M40.298 12l24.298 13.744v27.493L40.298 66.98 16 53.238V25.744"/><path d="M60.257 52.29L41.102 63.125v-8.438l11.935-6.568 7.22 4.17zm1.313-1.187v-22.66l-7.007 4.05V47.06l7.007 4.043zM20.263 52.29L39.42 63.125v-8.438L27.476 48.12l-7.214 4.17zm-1.312-1.187v-22.66l7.008 4.05V47.06l-7.007 4.043zm.823-24.13L39.42 15.862v8.157l-12.59 6.925-.1.057-6.957-4.026zm40.974 0L41.102 15.862v8.157l12.588 6.92.1.056 6.957-4.02z" fill="#8ED6FB"/><path d="M39.42 52.767l-11.78-6.48V33.46l11.78 6.8v12.507zm1.682 0l11.778-6.474V33.46l-11.778 6.8v12.507zm-12.664-20.79L40.26 25.48l11.823 6.498-11.823 6.825-11.822-6.825z" fill="#1C78C0"/></g></g></svg>
