<svg width="161" height="24" viewBox="0 0 161 24" xmlns="http://www.w3.org/2000/svg">
  <path d="M5.44 23H.313V1.672H5.44V23zm6.755-15.85l.162 1.86c1.093-1.435 2.602-2.153 4.526-2.153 1.65 0 2.883.494 3.7 1.48.814.986 1.237 2.47 1.266 4.453V23h-4.952V12.995c0-.8-.162-1.39-.484-1.765-.322-.376-.908-.564-1.758-.564-.966 0-1.684.38-2.153 1.143V23H7.567V7.15h4.628zm17.582 9.976L32.28 7.15h5.202L32.312 23h-5.04l-5.17-15.85h5.214l2.46 9.976zm15.53 6.167c-2.432 0-4.4-.725-5.904-2.175-1.503-1.45-2.255-3.338-2.255-5.662v-.41c0-1.62.3-3.052.9-4.292.6-1.24 1.478-2.2 2.63-2.88 1.152-.677 2.52-1.017 4.1-1.017 2.228 0 3.986.69 5.275 2.073 1.29 1.382 1.933 3.308 1.933 5.78v1.918h-9.814c.176.89.562 1.587 1.157 2.095.595.507 1.366.76 2.314.76 1.562 0 2.783-.545 3.662-1.64l2.256 2.667c-.616.85-1.487 1.526-2.615 2.03-1.128.502-2.34.753-3.64.753zm-.557-12.627c-1.445 0-2.305.957-2.578 2.87h4.98v-.38c.02-.79-.18-1.404-.6-1.838-.42-.435-1.02-.652-1.802-.652zM57.38 7.15l.16 1.86c1.095-1.435 2.604-2.153 4.528-2.153 1.65 0 2.883.494 3.698 1.48.816.986 1.238 2.47 1.267 4.453V23h-4.95V12.995c0-.8-.162-1.39-.484-1.765-.323-.376-.91-.564-1.76-.564-.966 0-1.684.38-2.152 1.143V23H52.75V7.15h4.63zm17.01-3.94v3.94h2.607v3.428H74.39v7.25c0 .597.107 1.012.322 1.246.215.235.64.352 1.274.352.49 0 .9-.03 1.23-.088v3.53c-.888.283-1.815.425-2.782.425-1.7 0-2.954-.4-3.765-1.2-.81-.802-1.217-2.018-1.217-3.65V10.58h-2.02V7.15h2.02V3.21h4.937zM83.02 23h-4.95V7.15h4.95V23zM77.778 3.063c0-.703.253-1.28.76-1.728.51-.45 1.168-.674 1.98-.674.81 0 1.47.226 1.976.675.508.45.762 1.025.762 1.728 0 .704-.254 1.28-.762 1.73-.507.448-1.167.673-1.977.673s-1.47-.225-1.978-.674c-.508-.45-.76-1.025-.76-1.73zm20.54 14.693c0-1.182-.415-2.117-1.246-2.805-.83-.688-2.347-1.342-4.554-1.962-2.207-.62-3.82-1.297-4.834-2.03-1.446-1.034-2.168-2.392-2.168-4.07 0-1.632.67-2.958 2.014-3.978 1.343-1.02 3.06-1.53 5.15-1.53 1.415 0 2.682.272 3.8.82 1.118.546 1.985 1.308 2.6 2.284.616.977.923 2.066.923 3.267h-1.815c0-1.454-.498-2.624-1.494-3.507-.996-.884-2.333-1.326-4.013-1.326-1.63 0-2.93.364-3.897 1.09-.966.73-1.45 1.68-1.45 2.85 0 1.084.435 1.968 1.304 2.652.87.682 2.26 1.285 4.175 1.808 1.913.522 3.363 1.064 4.35 1.626.986.56 1.728 1.233 2.226 2.014.498.78.747 1.704.747 2.77 0 1.678-.67 3.026-2.014 4.042-1.344 1.015-3.114 1.523-5.31 1.523-1.505 0-2.885-.27-4.14-.806-1.254-.537-2.206-1.29-2.856-2.256-.65-.965-.974-2.074-.974-3.324h1.802c0 1.504.56 2.69 1.684 3.56 1.123.87 2.618 1.304 4.483 1.304 1.66 0 2.992-.367 3.998-1.1 1.006-.732 1.51-1.703 1.51-2.914zm6.848-14.663V7.15h3.282v1.436h-3.282v10.56c0 .88.16 1.535.477 1.964.317.43.847.645 1.59.645.292 0 .766-.05 1.42-.147l.073 1.436c-.46.166-1.084.25-1.875.25-1.2 0-2.075-.35-2.622-1.048-.547-.7-.82-1.726-.82-3.084V8.586h-2.915V7.15h2.915V3.093h1.757zm15.946 17.9c-1.054 1.533-2.738 2.3-5.053 2.3-1.69 0-2.973-.49-3.852-1.472-.88-.98-1.328-2.433-1.348-4.357V7.15h1.743v10.093c0 3.018 1.22 4.527 3.662 4.527 2.54 0 4.146-1.05 4.82-3.15V7.15h1.758V23h-1.7l-.03-2.007zm4.418-6.064c0-2.462.55-4.423 1.648-5.883 1.1-1.46 2.59-2.19 4.475-2.19 2.14 0 3.77.845 4.894 2.535V.5h1.743V23h-1.64l-.074-2.11c-1.123 1.602-2.773 2.403-4.95 2.403-1.827 0-3.3-.735-4.417-2.205-1.12-1.47-1.678-3.454-1.678-5.954v-.205zm1.773.306c0 2.022.406 3.616 1.217 4.783.81 1.166 1.953 1.75 3.427 1.75 2.16 0 3.692-.953 4.6-2.857v-7.44c-.908-2.062-2.432-3.092-4.57-3.092-1.475 0-2.622.58-3.443 1.737-.82 1.157-1.23 2.863-1.23 5.12zM143.7 23h-1.757V7.15h1.757V23zm-2.065-20.435c0-.332.107-.612.322-.842.215-.23.508-.344.88-.344.37 0 .666.114.885.343.22.23.33.51.33.842 0 .332-.11.61-.33.835-.22.225-.515.337-.886.337-.37 0-.664-.112-.88-.337-.214-.224-.32-.503-.32-.835zm4.696 12.276c0-1.523.296-2.895.887-4.115.59-1.22 1.426-2.17 2.505-2.85 1.08-.678 2.302-1.018 3.67-1.018 2.11 0 3.818.74 5.126 2.22 1.31 1.48 1.963 3.44 1.963 5.88v.367c0 1.533-.294 2.913-.885 4.138-.59 1.226-1.424 2.17-2.498 2.835-1.074.664-2.3.996-3.677.996-2.1 0-3.806-.74-5.12-2.22-1.313-1.48-1.97-3.44-1.97-5.88v-.352zm1.758.484c0 1.895.49 3.45 1.473 4.666.982 1.216 2.27 1.823 3.86 1.823 1.582 0 2.864-.607 3.846-1.823.98-1.216 1.472-2.82 1.472-4.812v-.337c0-1.21-.225-2.32-.674-3.324-.45-1.006-1.08-1.785-1.89-2.337-.81-.553-1.738-.828-2.783-.828-1.56 0-2.836.612-3.822 1.838-.986 1.226-1.48 2.83-1.48 4.812v.322z" fill="#FFF" fill-rule="evenodd"/>
</svg>
