<svg width="1440" height="618" xmlns="http://www.w3.org/2000/svg" xmlns:xlink="http://www.w3.org/1999/xlink">
  <defs><path d="M0 0h1440v617.850632H0V0z" id="a"/><linearGradient x1="8.83327908%" y1="9.70414075%" x2="92.8862847%" y2="91.8950328%" id="b"><stop stop-color="#D15D9F" offset="0%"/><stop stop-color="#7544DE" offset="100%"/></linearGradient></defs><g fill="none" fill-rule="evenodd"><mask id="c" fill="#fff"><use xlink:href="#a"/></mask><path fill="url(#b)" mask="url(#c)" d="M0 0h1440v617.849976H0z"/><circle stroke="#FEFEFE" stroke-width="60" opacity=".04" mask="url(#c)" cx="720" cy="257" r="135"/><circle stroke="#FEFEFE" stroke-width="60" opacity=".03" mask="url(#c)" cx="720" cy="259" r="235"/><circle stroke="#FEFEFE" stroke-width="60" opacity=".02" mask="url(#c)" cx="720" cy="258" r="335"/><circle stroke="#FEFEFE" stroke-width="60" opacity=".01" mask="url(#c)" cx="720" cy="259" r="435"/><path d="M59.2820323 59.2820323v99.9999997h99.9999997V59.2820323H59.2820323zm-30-30H189.282032V189.282032H29.2820323V29.2820323z" fill="#FEFEFE" fill-rule="nonzero" opacity=".04" mask="url(#c)" transform="rotate(24 109.282032 109.282032)"/><path d="M1215.76856 179.227543h102.91796l-51.45898-102.9179605-51.45898 102.9179605zm51.45898-169.99999982l100 199.99999982h-200l100-199.99999982z" fill="#FEFEFE" fill-rule="nonzero" opacity=".03" mask="url(#c)" transform="rotate(48 1267.227543 109.227543)"/><path d="M279 628c33.137085 0 60-26.862915 60-60s-26.862915-60-60-60-60 26.862915-60 60 26.862915 60 60 60zm0 60c-66.27417 0-120-53.72583-120-120s53.72583-120 120-120 120 53.72583 120 120-53.72583 120-120 120z" fill="#FEFEFE" fill-rule="nonzero" opacity=".02" mask="url(#c)"/></g>
</svg>
