<svg viewBox="0 0 80 80" xmlns="http://www.w3.org/2000/svg">
  <g fill="none" fill-rule="evenodd">
    <rect fill="#1B99D3" width="80" height="80" rx="40"/>
    <path d="M39.813 68L23.61 63.502 20 23.005h39.674l-3.614 40.49L39.813 68zm.024-8.598l10.165-2.817.075-.84 1.167-13.075.12-1.334.898-10.053h-24.88l.452 4.967H46.82l-.453 5.086h-18.09l.445 4.967h17.214l-.577 6.44-5.54 1.497h-.005l-5.53-1.492-.355-3.962h-4.986l.696 7.8 10.174 2.823.023-.007zM29.337 13h6.016v2.516h-3.5v2.515h3.5v2.517h-6.016V13zm7.22 0h6.014v2.188h-3.5v.437h3.5v5.03h-6.014V18.36h3.5v-.438h-3.5V13zm7.218 0h6.015v2.188h-3.5v.437h3.5v5.03h-6.015V18.36h3.5v-.438h-3.5V13z" fill-rule="nonzero" fill="#FFF"/>
  </g>
</svg>
