<svg viewBox="0 0 80 80" xmlns="http://www.w3.org/2000/svg">
  <g fill="none" fill-rule="evenodd">
    <rect fill="#E16D3C" width="80" height="80" rx="40"/>
    <g fill-rule="nonzero" fill="#FFF">
      <path d="M26.12 17.86h2.16v2.34h2.52V13h-2.52v2.34h-2.16V13H23.6v7.2h2.52M34.76 20.2h2.34v-4.86h2.16V13H32.6v2.34h2.16M43.04 16.6l1.62 2.7 1.62-2.7v3.6h2.52V13h-2.52l-1.62 2.52L43.04 13h-2.52v7.2h2.52M56 17.86h-3.42V13h-2.52v7.2H56M20 23.8l3.6 39.6L39.8 67 56 63.4l3.6-39.6H20zm31.5 12.6H32.6l.9 3.6h17.1l-1.8 16.2-9 3.6-9-3.6-1.44-7.2h5.04l.9 3.6 4.5 1.8 4.5-1.8.9-7.2H29L27.2 31h25.2l-.9 5.4z"/>
    </g>
  </g>
</svg>
