<svg viewBox="0 0 80 80" xmlns="http://www.w3.org/2000/svg">
  <g fill="none" fill-rule="evenodd">
    <rect fill="#F8E100" width="80" height="80" rx="40"/>
    <path d="M49.967 23.058c1.013-.078 1.155-.078 2.23.007 2.197.164 3.862.698 5.42 1.738.843.563 2.068 1.845 2.748 2.87.32.485.58.898.58.927 0 .05-5.148 3.397-5.333 3.476-.056.02-.22-.17-.44-.52-.19-.307-.6-.812-.92-1.126-.9-.912-1.784-1.268-3.15-1.268-1.205-.007-1.985.3-2.658 1.033-.467.506-.68 1.026-.73 1.795-.056.97.206 1.745.823 2.408.644.69 1.622 1.232 4.54 2.493 3.86 1.667 5.794 2.82 7.288 4.346.78.797 1.233 1.43 1.686 2.372.66 1.374.95 2.763.95 4.544 0 2.785-.87 5.007-2.642 6.724-1.664 1.624-3.81 2.578-6.672 2.984-1.14.157-3.372.164-4.562 0-4.547-.612-7.91-2.75-10.064-6.396-.277-.456-.333-.605-.263-.67.114-.106 5.504-3.233 5.568-3.233.028 0 .233.27.46.6 1.658 2.464 3.72 3.603 6.48 3.603 1.637 0 2.955-.448 3.79-1.296.248-.25.525-.62.63-.84.546-1.14.305-2.63-.56-3.562-.7-.755-1.798-1.36-4.75-2.636-2.17-.94-3.423-1.546-4.343-2.102-3.62-2.2-5.242-4.98-5.242-8.953 0-2.657.822-4.75 2.543-6.468 1.672-1.667 3.917-2.635 6.594-2.85zM27.917 36l.03-12.586h6.933v12.63c0 8.376-.028 12.827-.07 13.226-.49 3.94-2.338 6.59-5.49 7.87-2.627 1.062-6.21 1.148-9.002.215-2.642-.884-4.838-2.807-6.106-5.35L14 51.578l2.798-1.71c1.537-.933 2.82-1.71 2.847-1.723.02-.007.206.27.41.612 1.27 2.18 2.36 2.956 4.18 2.95 1.275-.008 2.04-.257 2.635-.855.425-.428.666-.89.87-1.667l.157-.59.02-12.595z" fill-rule="nonzero" fill="#484848"/>
  </g>
</svg>
