<svg viewBox="0 0 80 80" xmlns="http://www.w3.org/2000/svg">
  <g fill="none" fill-rule="evenodd">
    <rect fill="#1FB6FF" width="80" height="80" rx="40"/>
    <path d="M61.378 46.173c-21.833-1.653-39.876 3.508-43.934 5.43-2.247 1.013-2.415 2.295-2.08 3.003.302.54 1.376.877 2.55.27 8.652-4.62 26.192-8.298 43.464-7.252.403 0 .738-.338.738-.742 0-.372-.335-.71-.738-.71zm5.4-6.477c-.906 1.012-2.247 1.788-2.683 1.417-.403-.37 0-1.585 0-1.585 2.146-1.383 6.305-4.892 6.305-7.59 0-2.496-2.247-3.272-4.628-.945-1.912 2.058-3.32 4.554-4.058 7.287-1.24 1.214-3.186 2.766-4.964 2.766-.905 0-1.174-.64-1.04-1.518 1.51-.034 5.668-1.18 5.668-4.655 0-.574-.268-1.114-.67-1.518-.436-.405-1.007-.574-1.577-.54-1.877 0-4.292 1.923-5.465 4.62-.336-.066-.638-.167-.94-.302.302-.675.57-1.35.738-2.058.27-1.417-.335-2.294-1.51-2.193-.737.068-1.642.71-1.81 2.193-.067.742.067 1.518.403 2.193-.503 1.585-2.616 3.575-3.32 3.508-.705-.068.1-2.9.804-4.993.403-.404.705-.877.906-1.416.2-.405.067-.91-.336-1.147-1.073-.405-2.28.1-2.75 1.147-.3.506-.536 1.045-.737 1.585-.57.708-1.51 1.585-1.778 1.518-.402-.27.906-1.99.738-2.935-.134-.81-.84-1.35-1.643-1.282-1.174.17-2.75 2.395-2.75 2.395.167-.404.3-.843.335-1.28-.067-.845-1.644-1.216-2.415.302-.537 1.45-.94 2.97-1.174 4.52-.335.71-1.643 2.766-2.683 2.834-.838.067.2-3.643.336-3.846.468-.708 1.038-2.192.904-2.833 0-.304-.134-.607-.37-.81-.234-.202-.57-.236-.87-.168-.537.134-.973.472-1.242.944-.37-.47-.972-.674-1.576-.572-3.454.37-5.668 6.34-5.433 9.14.2 1.52.905 2.43 2.247 2.26 1.51-.2 2.75-2.36 2.75-2.36s.335 1.788 1.945 1.586c1.208-.372 2.28-1.114 3.052-2.126-.033.102-.067.203-.067.304-.268 1.518 2.247 1.35 2.482.202.738-5.7 2.683-8.062 3.253-8.062.47 0-1.24 2.7-.268 3.71.738.912 2.08.203 3.186-.74-.2.707-.302 1.45-.336 2.19-.067 1.587.504 2.87 2.08 2.835 2.08-.068 4.293-2.63 5.735-5.06.37.236.805.405 1.24.506-.133.573-.2 1.147-.167 1.754.134 1.855 1.442 2.564 2.95 2.496 1.78-.067 3.858-1.417 5.267-2.63 0 .067-.034.134-.067.2-.134.912.067 2.565 1.375 2.633 1.51.135 4.09-1.417 5.4-3.003 1.106-.708.033-1.72-.772-.877zm1.41-7.724c.166 0 .267.168.267.303 0 1.586-4.058 4.993-4.058 4.993s2.65-5.296 3.79-5.296zm-9.76 3.34c.133 0 .267.033.368.134.1.1.134.236.1.37 0 .912-1.24 1.587-2.615 1.587.738-1.046 1.577-2.092 2.147-2.092zm-29.75 7.758c-1.173.067.57-6.072 2.483-6.04.37 0 .37.27.27.777-.135.945-1.812 5.263-2.75 5.263zM16.74 38.954c1.106 0-.906 5.7-.638 8.197.27 2.498 3.052 1.79 2.85.305-.334-2.43 1.376-10.187 3.053-10.187 1.24 0-1.375 5.33-.838 8.635.335 2.193 3.32 1.518 2.984.135-.904-4.35 2.148-8.568 1.745-11.638-.2-1.282-.905-1.99-1.777-1.99-2.817 0-5.098 5.633-5.098 5.633s.268-3.204-2.012-3.34c-3.287-.168-6.674 8.03-6.607 15.45.068 2.362 3.053 1.99 2.852.068-.168-3.305 1.777-11.266 3.488-11.266z" fill="#FFF" fill-rule="nonzero"/>
  </g>
</svg>
