<svg viewBox="0 0 80 80" xmlns="http://www.w3.org/2000/svg" xmlns:xlink="http://www.w3.org/1999/xlink">
  <defs><path d="M4.83.035l-1.54.51S3.486 8.342.674 8.888c-1.854 2.148.286 91.776 7.022.307 0 0-2.305-1.158-2.742-3.124C4.518 4.105 4.83.036 4.83.036z" id="a"/><linearGradient x1="-70.443%" y1="56.045%" x2="160.736%" y2="44.147%" id="c"><stop stop-color="#929669" offset="0%"/><stop stop-color="#929669" offset="23.077%"/><stop stop-color="#FDFCF1" offset="100%"/></linearGradient><path d="M2.37.005s13.387 8.817 10.25 27.127C9.6 40.435 2.47 44.81 1.704 46.478.86 47.66.01 49.754.01 49.754l.57-37.066S-.598 1.37 2.37.005z" id="d"/><linearGradient x1="-16.607%" y1="99.299%" x2="78.15%" y2="2.536%" id="f"><stop stop-color="#45AA3A" offset="0%"/><stop stop-color="#3D9439" offset="100%"/></linearGradient><path d="M11.916.027S-.64 8.593.08 23.707C.805 38.822 9.674 46.253 11.4 47.602c1.117 1.19 1.163 1.65 1.25 2.823.782-1.68.652-25.114.735-27.853.322-10.66-.59-20.533-1.47-22.545z" id="g"/><linearGradient x1="-9.624%" y1="43.904%" x2="152.344%" y2="53.689%" id="i"><stop stop-color="#41A83B" offset="0%"/><stop stop-color="#5EBC44" offset="100%"/></linearGradient></defs><g fill="none" fill-rule="evenodd"><rect fill="#343637" width="80" height="80" rx="40"/><g transform="matrix(1 0 0 -1 36.77 68.882)"><mask id="b" fill="#fff"><use xlink:href="#a"/></mask><path d="M4.83.035l-1.54.51S3.486 8.342.674 8.888c-1.854 2.148.286 91.776 7.022.307 0 0-2.305-1.158-2.742-3.124C4.518 4.105 4.83.036 4.83.036" mask="url(#b)" fill-rule="nonzero" fill="url(#c)"/></g><g transform="matrix(1 0 0 -1 40.06 61.323)"><mask id="e" fill="#fff"><use xlink:href="#d"/></mask><path d="M2.37.005s13.387 8.817 10.25 27.127C9.6 40.435 2.47 44.81 1.704 46.478.86 47.66.01 49.754.01 49.754l.57-37.066S-.598 1.37 2.37.005" mask="url(#e)" fill-rule="nonzero" fill="url(#f)"/></g><g transform="matrix(1 0 0 -1 27.36 61.837)"><mask id="h" fill="#fff"><use xlink:href="#g"/></mask><path d="M11.916.027S-.64 8.593.08 23.707C.805 38.822 9.674 46.253 11.4 47.602c1.117 1.19 1.163 1.65 1.25 2.823.782-1.68.652-25.114.735-27.853.322-10.66-.59-20.533-1.47-22.545" mask="url(#h)" fill-rule="nonzero" fill="url(#i)"/></g></g>
</svg>
