<svg viewBox="0 0 80 80" xmlns="http://www.w3.org/2000/svg" xmlns:xlink="http://www.w3.org/1999/xlink">
  <defs><rect id="a" width="80" height="80" rx="40"/></defs><g fill="none" fill-rule="evenodd"><g><use fill="#34364E" xlink:href="#a"/><rect stroke="#31C5F0" stroke-width="6" x="3" y="3" width="74" height="74" rx="37"/></g><g fill="#31C5F0"><path d="M51.814 36.048c-2.373 0-3.183 1.213-3.183 2.214 0 1.09.54 1.85 3.725 3.517 4.715 2.303 6.187 4.517 6.187 7.76 0 4.852-3.664 7.46-8.62 7.46-2.613 0-4.865-.546-6.157-1.304-.21-.09-.24-.242-.24-.485v-4.456c0-.303.15-.394.36-.243 1.893 1.245 4.055 1.79 6.037 1.79 2.373 0 3.364-1 3.364-2.365 0-1.09-.69-2.062-3.724-3.638-4.265-2.062-6.037-4.154-6.037-7.64 0-3.913 3.033-7.157 8.29-7.157 2.582 0 4.384.394 5.375.85.24.15.3.393.3.605v4.154c0 .242-.15.393-.45.302-1.322-.848-3.274-1.364-5.226-1.364zM21 23.51c0-.21.42-.36.658-.36 1.912-.09 4.752-.15 7.71-.15 8.28 0 11.507 4.562 11.507 10.385 0 7.623-5.5 10.895-12.254 10.895-1.134 0-1.523-.06-2.33-.06v11.525c0 .24-.09.36-.36.36h-4.57c-.24 0-.36-.09-.36-.36V23.51zm5.32 15.938c.687.06 1.225.06 2.42.06 3.498 0 6.785-1.23 6.785-6.003 0-3.812-2.36-5.733-6.336-5.733-1.196 0-2.332.06-2.87.09v11.586z"/></g></g>
</svg>
