<svg viewBox="0 0 80 80" xmlns="http://www.w3.org/2000/svg"><g fill="none" fill-rule="evenodd"><rect fill="#336791" width="80" height="80" rx="40"/><g fill-rule="nonzero"><path d="M46.05 22.292l-.126.068.126-.068zm6.01 42.858c-.74 1.055-1.66 1.82-2.77 2.36-.835.407-1.662.65-2.892.915-3.4.73-5.71-.526-6.9-3.023-.165-.344-.297-.682-.432-1.08-.02-.058-.185-.563-.215-.644-.494-1.336-.687-3.083-.806-6.053-.013-.313-.022-.6-.037-1.15-.01-.4-.013-.466-.018-.637l-.01-.29c-.6.26-1.23.447-1.886.56-1.445.246-2.81.124-4.164-.214-1.033-.26-2.024-.75-2.65-1.52-2.066 1.71-4.496 1.53-6.5-.418-1.53-1.486-2.86-3.988-4.095-7.345-1.817-4.942-3.457-12.262-3.595-15.028-.235-4.7.837-8.218 3.138-10.543 1.98-2 4.663-2.936 7.796-3.04 2.25-.074 4.603.28 6.933.912.62.168 1.2.346 1.733.526 1.82-1.08 3.977-1.63 6.446-1.588 1.316.02 2.547.134 3.697.337.445-.136.997-.28 1.565-.4 1.503-.322 3.114-.505 4.77-.485 2.152.025 4.232.394 6.176 1.18 2.32.94 4.353 2.442 6.002 4.55 1.646 2.103 1.584 6.18.278 11.235-1.068 4.134-2.905 8.55-5.262 12.52.688-.02 1.544-.126 2.576-.34.465-.095.885-.14 1.277-.127.6.02 1.153.17 1.652.55.7.532 1.033 1.358.953 2.192-.05.515-.237.96-.513 1.376-.663 1-2.032 2.02-3.59 2.742-1.51.702-3.878 1.093-5.798 1.006l-.44-.037c-.03.238-.063.52-.08.67-.13 4.984-.858 8.22-2.34 10.33zm-1.952-10.74c.004-.032.113-.96.142-1.192.075-.578.145-.97.26-1.346.204-.655.536-1.205 1.1-1.623.578-.428 1.224-.584 1.925-.57.117.003.234.01.355.022-.458-.464-.722-.985-.823-1.482l-.18-.884.505-.75c2.75-4.08 4.91-8.945 6.06-13.397.52-2.022.802-3.848.824-5.29.01-.66-.035-1.217-.126-1.644-.038-.178-.083-.325-.13-.436-.03-.073-.055-.116-.067-.132-2.195-2.805-5.23-4.034-8.835-4.077-1.315-.015-2.613.133-3.82.39-.428.093-.815.192-1.14.29-.095.027-.178.053-.244.075l-.164.09-.806.148-.413-.086c-1.04-.216-2.19-.338-3.464-.358-1.995-.034-3.55.458-4.786 1.394l-.982.745-1.14-.47-.136-.054c-.132-.05-.288-.108-.466-.17-.517-.182-1.098-.364-1.727-.535-1.95-.527-3.9-.82-5.663-.762-2.123.07-3.77.644-4.876 1.762-1.362 1.378-2.075 3.716-1.896 7.297.043.848.413 3.04.948 5.427.66 2.944 1.487 5.878 2.388 8.33 1.03 2.797 2.105 4.82 3.053 5.742.182.177.337.29.454.346.27-.115.47-.292.696-.565.993-1.194 2.04-2.39 3.075-3.534.363-.4.698-.766 1-1.09l.28-.3.105-.11L32.64 44.3l1.507 1.003c.517.343 1.086.545 1.674.593l3.58-3.05-.52 5.312c-.013.138-.007.282.027.5l5.554-7.654-2.633 10.562c.02.057.037.114.055.173.11.37.19.788.248 1.274.086.704.13 1.488.166 2.694l.02.648c.014.533.022.807.034 1.096.1 2.49.265 3.98.542 4.728.064.172.26.772.255.756.086.253.16.444.24.61.164.346.326.54.51.638.285.156.775.203 1.598.027 1.766-.377 2.46-.716 3.037-1.536.898-1.278 1.458-3.792 1.562-8.06l2.153.052-2.14-.257z" fill="#000"/><path d="M55.18 47.79c6.12-9.08 8.678-20.61 6.47-23.43-6.024-7.698-16.452-4.058-16.626-3.963-1.2-.228-2.483-.37-3.923-.393-2.622-.043-4.612.688-6.122 1.833 0 0-18.602-7.664-17.737 9.638.185 3.68 5.277 27.85 11.35 20.55 2.22-2.67 4.364-4.927 4.364-4.927 1.065.707 2.34 1.068 3.677.94.073.242.088.566.147.95-1.565 1.748-1.105 2.055-4.232 2.698-3.165.653-1.306 1.814-.092 2.117 1.47.368 4.875.89 7.176-2.33l-.093.367c.613.49 1.043 3.193.97 5.643-.07 2.45-.12 4.132.364 5.446.484 1.313.965 4.27 5.077 3.388 3.435-.736 5.215-2.644 5.463-5.826.176-2.263.573-1.928.598-3.95l.32-.958c.367-3.067.058-4.057 2.174-3.596l.515.045c1.557.07 3.596-.25 4.793-.807 2.576-1.196 4.105-3.192 1.564-2.668-5.797 1.196-6.195-.767-6.195-.767z" fill="#336791"/><path d="M39.16 50.296c-.173 6.163.064 11.672.65 13.136.495 1.24.965 2.046 1.804 2.753 1.194 1.006 2.808 1.358 4.88.915 3.644-.782 5.178-2.376 5.783-5.888.36-2.085 1.157-8.534 1.277-10.127.03-.395-.267-.74-.663-.77-.394-.03-.74.267-.77.663-.115 1.547-.906 7.95-1.26 9.99-.504 2.933-1.596 4.07-4.668 4.727-1.65.354-2.81.1-3.653-.61-.61-.513-.982-1.15-1.397-2.186-.48-1.2-.713-6.65-.547-12.564.01-.396-.302-.727-.698-.738-.397-.01-.727.302-.738.698zM35.22 21.044c-.036-.015-.103-.042-.2-.078-.155-.06-.335-.125-.538-.196-.576-.2-1.22-.4-1.915-.588-2.21-.593-4.437-.922-6.533-.847-2.798.102-5.137.924-6.825 2.633-1.99 2.016-2.944 5.143-2.727 9.47.052 1.05.445 3.377 1.013 5.912.686 3.06 1.547 6.11 2.496 8.693 1.166 3.17 2.412 5.513 3.747 6.81 1.73 1.685 3.66 1.603 5.36-.44.965-1.16 1.958-2.296 2.926-3.36.338-.373.65-.71.925-1.005l.256-.27.088-.092c.274-.287.264-.74-.022-1.016-.286-.274-.74-.265-1.016.022l-.093.098c-.075.08-.162.17-.26.277-.28.3-.597.642-.94 1.02-.98 1.078-1.988 2.23-2.967 3.406-1.16 1.395-2.12 1.436-3.256.33-1.14-1.11-2.303-3.292-3.4-6.276-.925-2.517-1.77-5.51-2.442-8.51-.55-2.462-.933-4.72-.98-5.67-.198-3.955.635-6.69 2.313-8.39 1.4-1.416 3.394-2.117 5.856-2.206 1.934-.07 4.025.24 6.108.8.66.177 1.27.367 1.816.557.19.066.357.127.5.182l.13.048c.405.166.824-.01.974-.377.15-.366-.026-.786-.393-.936zM45.22 21.006l-.07.02c-.032.008-.032.008-.147.02-.054 0-.054 0-.158-.012-.07-.015-.07-.015-.175-.057-.128-.068-.128-.068-.276-.23-.122-.22-.122-.22-.134-.46.032-.195.032-.195.09-.308.098-.145.098-.145.157-.196.125-.09.125-.09.157-.104.058-.026.075-.033.095-.04.068-.027.173-.063.297-.103.338-.108.757-.224 1.227-.334 1.37-.32 2.874-.523 4.43-.537 2.038-.02 4.004.287 5.83.99 2.184.84 4.087 2.215 5.63 4.188 2.627 3.356-.5 15.463-6.44 24.277-.222.33-.668.417-.997.195-.33-.22-.416-.668-.195-.997 2.843-4.218 5.07-9.234 6.26-13.842 1.092-4.23 1.144-7.593.242-8.746-2.572-3.286-6.16-4.666-10.316-4.628-1.444.014-2.843.202-4.117.5-.43.1-.813.207-1.115.303-.064.02-.12.04-.164.055-.034.018-.072.034-.11.046zm.053-.025l.025-.01c.026-.01.026-.01.15-.1.058-.05.058-.05.157-.195.057-.112.057-.112.09-.307-.013-.24-.013-.24-.135-.46-.148-.162-.148-.162-.276-.23-.104-.042-.104-.042-.174-.056-.104-.014-.104-.014-.157-.012-.113.01-.113.01-.137.018l-.027.007c.378-.12.78.092.9.47.106.34-.052.7-.36.855l-.057.02z" fill="#FFF"/><path d="M56.016 47.714c.273.198.728.35 1.413.413.93.084 2.173-.017 3.76-.344.796-.165 1.37-.145 1.768.16.29.22.426.556.39.91-.022.246-.122.482-.28.72-.492.743-1.658 1.612-2.996 2.233-1.13.525-2.927.864-4.524.882-.826.01-1.55-.07-2.105-.24-.768-.24-1.283-.68-1.322-1.375-.1-1.794.47-2.84 1.573-3.336.144-.065.29-.118.456-.168.024-.01.063-.02.106-.033-.056-.08-.127-.175-.215-.287-.03-.04-.33-.414-.428-.54-.188-.243-.35-.463-.505-.696-.316-.475-.584-.968-.81-1.517-.062-.15-1.364-2.485-1.853-3.46-.52-1.037-.95-2.006-1.28-2.928-.83-2.322-.99-4.2-.222-5.57.857-1.525 2.716-2.15 5.598-1.855-.072-.215-.163-.454-.268-.708-.51-1.223-1.268-2.546-2.227-3.77-2.654-3.395-6.307-5.48-10.997-5.557-2.476-.04-4.445.64-5.987 1.936-1.312 1.102-2.296 2.635-2.99 4.496-.51 1.37-.834 2.845-1.01 4.333-.063.544-.103 1.057-.123 1.53-.014.313-.017.564-.015.74.01.426-.302.756-.698.767-.397.01-.727-.303-.737-.7-.004-.25 0-.527.014-.87.023-.506.066-1.055.134-1.635.188-1.594.537-3.178 1.09-4.666.774-2.077 1.89-3.816 3.413-5.094 1.81-1.522 4.117-2.32 6.934-2.273 5.16.085 9.2 2.393 12.107 6.108 1.04 1.33 1.864 2.766 2.42 4.105.224.536.39 1.028.485 1.414.047.194.076.362.084.503.005.108 0 .206-.024.31-.064.265-.236.504-.583.576l-.26.004c-2.92-.467-4.515-.04-5.105 1.01-.51.907-.38 2.418.322 4.38.308.862.714 1.78 1.21 2.768.457.91 1.797 3.314 1.898 3.557.188.457.412.868.678 1.267.133.2.274.394.443.61.09.117.387.487.424.535.375.476.562.778.657 1.15.038.072.094.134.19.202zm-1.12 1.134l-.327.094c-.114.035-.205.068-.288.105-.526.236-.788.705-.73 1.885.058.044.166.096.317.143.39.12.974.184 1.662.176 1.408-.014 3.008-.316 3.935-.747.838-.39 1.588-.89 2.048-1.32l-.036.007c-3.203.66-5.212.48-6.306-.312-.038-.027-.074-.055-.11-.083-.05.018-.106.035-.167.053zm.93-1.33c.005.013.01.032.016.06l-.013-.055-.003-.004zM36.2 48.437c.48-.538.994-.826 1.54-.874.41-.036.7.04 1.156.23 1.44.596 2.22 2.702 1.276 4.024-1.152 1.614-2.65 2.51-4.362 2.802-1.218.208-2.396.102-3.572-.192-.877-.22-1.733-.687-2.054-1.283-.287-.532-.152-1.118.346-1.524.376-.306.974-.533 1.83-.71.585-.12 1.026-.225 1.37-.326.704-.207.987-.377 1.302-.732.057-.064.797-1 1.17-1.415zm-4.386 4.297c.23.126.515.236.772.3 1 .25 1.99.34 2.982.17 1.35-.23 2.51-.926 3.435-2.222.374-.523-.025-1.6-.657-1.863-.254-.106-.368-.136-.48-.126-.156.014-.343.12-.595.4-.333.374-1.07 1.306-1.163 1.41-.504.568-1.02.878-1.97 1.158-.39.114-.866.228-1.488.356-.468.096-.808.203-1.02.303.05.037.113.075.184.114z" fill="#FFF"/><path d="M29.37 40.382c.256-1.83.28-3.52.175-5.458-.01-.176-.04-.68-.04-.7-.014-.24-.02-.38-.02-.495.005-.573.56-1.024 1.54-1.57.85-.474 1.863-.878 2.84-1.103 1.222-.282 2.342-.28 3.277.08 1.144.44 1.92 1.39 2.228 2.813.534 2.47.678 4.495.494 6.23-.145 1.37-.462 2.44-1.01 3.704-.09.204-.403.902-.372.833-.136.305-.228.526-.307.737-.784 2.115-.934 2.654-.832 3.323.06.392-.21.758-.6.818-.393.06-.76-.208-.82-.6-.014-.095-.024-.19-.03-.287-3.98-.097-7.133-3.96-6.523-8.326zm6.747 6.622c.145-.52.17-.592.712-2.05.09-.245.193-.49.34-.82-.028.06.28-.628.365-.82.496-1.143.772-2.077.9-3.286.167-1.573.034-3.447-.47-5.774-.382-1.77-1.695-2.277-3.777-1.797-.84.193-1.726.547-2.464.958-.31.173-.573.345-.746.486l-.05.042.01.2.042.704c.11 2.023.084 3.798-.187 5.735-.5 3.574 2.086 6.69 5.254 6.693.02-.088.045-.178.07-.27z" fill="#FFF"/><path d="M36.067 33.12c.726.102 1.298.422 1.24.85-.064.448-.78.933-1.424.844-.648-.09-1.3-.776-1.238-1.217l.03-.206h.057c.208-.266.743-.352 1.335-.27zM53.373 33.135c.052.37-.55 1-1.136 1.08-.58.082-1.235-.36-1.288-.742-.046-.33.47-.62 1.136-.713.664-.092 1.24.044 1.287.375zM54.697 31.564c.036.677-.007 1.275-.13 2.126l-.044.29-.023.147c-.01.075-.017.115-.023.15-.152.99-.217 1.555-.24 2.286-.025.755.023 1.32.196 2.757.185 1.543.234 2.29.16 3.168-.095 1.13-.423 2.126-1.064 3.084-.222.33-.134.775.196.996.33.22.776.132.996-.197.783-1.168 1.187-2.398 1.302-3.76.085-1.008.032-1.824-.165-3.46-.165-1.363-.21-1.885-.188-2.54.02-.66.08-1.177.225-2.115l.023-.15.023-.148.045-.3c.136-.937.186-1.623.143-2.41-.02-.397-.36-.7-.755-.68-.396.022-.7.36-.678.757z" fill="#FFF"/></g></g></svg>
