<?xml version="1.0" encoding="UTF-8"?>
<svg width="184px" height="271px" viewBox="0 0 184 271" version="1.1" xmlns="http://www.w3.org/2000/svg" xmlns:xlink="http://www.w3.org/1999/xlink">
    <!-- Generator: Sketch 49 (51002) - http://www.bohemiancoding.com/sketch -->
    <title>logo-trans-white</title>
    <desc>Created with Sketch.</desc>
    <defs>
        <linearGradient x1="100%" y1="26.8860048%" x2="0%" y2="70.8252475%" id="linearGradient-1">
            <stop stop-color="#B73DC7" offset="0%"></stop>
            <stop stop-color="#A740C4" offset="8.46221301%"></stop>
            <stop stop-color="#714BBB" offset="38.3131378%"></stop>
            <stop stop-color="#5358CF" offset="66.4500957%"></stop>
            <stop stop-color="#3F64D4" offset="84.5583546%"></stop>
            <stop stop-color="#2B69DD" offset="100%"></stop>
        </linearGradient>
    </defs>
    <g id="Page-1" stroke="none" stroke-width="1" fill="none" fill-rule="evenodd">
        <g id="logo-trans-white" fill="url(#linearGradient-1)" fill-rule="nonzero">
            <path d="M57.171488,204.31219 C54.767115,199.009109 51.920658,193.917647 48.607962,188.879864 C44.102027,182.02746 40.147277,177.036561 31.122952,166.346663 C19.213832,152.239562 14.299665,145.601938 9.559981,136.080714 C3.395193,123.696695 0.211919,109.826914 0.211919,92.345702 C0.211919,41.620721 41.306843,0.5 92,0.5 C142.693157,0.5 183.788081,41.620721 183.788081,92.345702 C183.788081,109.518804 180.796628,123.07745 175.001096,135.073013 C170.494621,144.400494 165.470698,151.308448 154.477744,164.360933 C154.19499,164.696661 152.741418,166.421143 152.329242,166.910703 C144.340669,176.399089 140.019016,181.932893 135.54646,188.85831 C132.056376,194.262443 129.064602,199.769026 126.542405,205.562048 C126.196178,206.608455 125.763424,208.466738 125.244143,211.136897 C124.645029,214.217552 121.946795,216.441596 118.808424,216.441596 L65.26032,216.441596 C62.018177,216.441598 59.262885,214.07186 58.777819,210.866207 C58.34415,208.000216 57.894808,206.01675 57.429792,204.91581 C57.346502,204.718618 57.260401,204.517411 57.171488,204.31219 Z M53.75083,175.841054 C55.552761,175.22416 57.485465,174.889383 59.496311,174.889383 C61.246464,174.889383 62.937424,175.142984 64.534489,175.615466 C66.12418,171.236865 69.926841,167.91913 74.591197,167.013004 C74.849494,163.130539 76.758085,159.699359 79.622029,157.414136 C84.623771,141.764921 82.333716,126.833431 86.807369,126.833431 C90.262541,126.833431 89.7846,135.934006 91.712695,147.367819 C93.647603,135.931856 93.018331,126.833431 96.510489,126.833431 C100.902751,126.833431 98.939164,141.539818 103.641998,157.050712 C106.74465,159.308322 108.843378,162.861318 109.142731,166.914558 C113.927152,167.630227 117.886887,170.867176 119.625404,175.229422 C121.122306,174.686776 122.737534,174.390869 124.421903,174.390869 C126.561355,174.390869 128.58926,174.868273 130.40482,175.722324 C133.715914,171.14355 137.599365,166.306562 143.416466,159.39733 C143.826095,158.911017 143.826095,158.911017 144.463451,158.1547 C145.180371,157.304013 145.180371,157.304013 145.566198,156.846099 C156.444217,143.930083 160.670069,137.942814 164.50881,129.997407 C169.640715,119.375414 172.134003,107.46067 172.134003,92.345702 C172.134003,48.061131 136.256788,12.161394 92,12.161394 C47.743212,12.161394 11.865997,48.061131 11.865997,92.345702 C11.865997,107.702539 14.515081,119.880007 19.991562,130.881332 C24.054772,139.043635 28.161274,144.767237 40.025798,158.821513 C46.549753,166.54956 50.475706,171.376208 53.75083,175.841054 Z M122.954521,229.672191 C122.954521,232.470191 120.686294,234.738419 117.888293,234.738419 L66.07285,234.738419 C63.27485,234.738419 61.006622,232.470191 61.006622,229.672191 C61.006622,226.874191 63.27485,224.605963 66.07285,224.605963 L117.888293,224.605963 C120.686294,224.605963 122.954521,226.874191 122.954521,229.672191 Z M119.978498,247.552986 C119.978498,250.350986 117.710271,252.619214 114.912271,252.619214 L69.649009,252.619214 C66.851009,252.619214 64.582781,250.350986 64.582781,247.552986 C64.582781,244.754986 66.851009,242.486758 69.649009,242.486758 L114.912271,242.486758 C117.710271,242.486758 119.978498,244.754986 119.978498,247.552986 Z M112.291376,265.433781 C112.291376,268.231781 110.023148,270.500009 107.225148,270.500009 L76.801327,270.500009 C74.003327,270.500009 71.735099,268.231781 71.735099,265.433781 C71.735099,262.635781 74.003327,260.367553 76.801327,260.367553 L107.225148,260.367553 C110.023148,260.367553 112.291376,262.635781 112.291376,265.433781 Z M82.757365,68.058748 C85.225828,64.498622 87.876629,60.822155 91.649728,58.542819 C95.370307,60.765637 97.99511,64.376716 100.428326,67.873716 C106.159689,76.526047 109.66373,86.918618 108.956884,97.363707 C110.80906,98.911089 112.714803,100.396735 114.53941,101.975768 C117.158629,104.375097 118.381606,108.11782 117.751012,111.597256 C116.872297,115.992634 116.027781,120.397925 115.097768,124.781305 C114.580764,127.036469 111.519395,128.068926 109.719566,126.628146 C106.73218,124.14291 103.819125,121.5662 100.832612,119.077834 C98.57301,121.245003 95.571316,122.69013 92.419912,122.864207 C88.79216,123.119147 85.200527,121.619762 82.57049,119.170176 C80.427794,120.80503 78.441089,122.767517 76.347598,124.518538 C75.33575,125.328923 74.494376,126.3939 73.296874,126.947257 C71.440336,127.74112 69.04952,126.556325 68.629879,124.567405 C67.673867,120.282106 66.675105,116.00446 65.74736,111.712553 C64.993403,108.081822 66.328749,104.128677 69.135716,101.694568 C70.76071,100.334305 72.408388,99.001344 74.063742,97.678122 C74.524911,97.436398 74.293192,96.878867 74.319365,96.469328 C73.825917,86.39152 77.27988,76.430227 82.757365,68.058748 Z M85.689264,87.29332 C83.521442,90.074713 83.783696,94.382966 86.297874,96.866985 C88.959668,99.790108 94.001459,99.89671 96.785568,97.091319 C98.93472,95.134398 99.661457,91.848863 98.63565,89.149031 C97.695691,86.546236 95.179244,84.593662 92.411537,84.350895 C89.855657,84.057696 87.209218,85.229623 85.689264,87.29332 Z" id="logo"></path>
        </g>
    </g>
</svg>