<?xml version="1.0" encoding="UTF-8"?>
<svg width="400px" height="400px" viewBox="0 0 400 400" version="1.1" xmlns="http://www.w3.org/2000/svg" xmlns:xlink="http://www.w3.org/1999/xlink">
    <!-- Generator: Sketch 46.1 (44463) - http://www.bohemiancoding.com/sketch -->
    <title>AvatarTransWhite</title>
    <desc>Created with Sketch.</desc>
    <defs>
        <linearGradient x1="100%" y1="0%" x2="0%" y2="95.0490003%" id="linearGradient-1">
            <stop stop-color="#B73DC7" offset="0%"></stop>
            <stop stop-color="#A740C4" offset="8.46221301%"></stop>
            <stop stop-color="#714BBB" offset="38.3131378%"></stop>
            <stop stop-color="#5358CF" offset="66.4500957%"></stop>
            <stop stop-color="#3F64D4" offset="84.5583546%"></stop>
            <stop stop-color="#2B69DD" offset="100%"></stop>
        </linearGradient>
    </defs>
    <g id="Page-1" stroke="none" stroke-width="1" fill="none" fill-rule="evenodd">
        <g id="AvatarTransWhite" fill-rule="nonzero" fill="url(#linearGradient-1)">
            <path d="M165.171488,268.31219 C162.767115,263.009109 159.920658,257.917647 156.607962,252.879864 C152.102027,246.02746 148.147277,241.036561 139.122952,230.346663 C127.213832,216.239562 122.299665,209.601938 117.559981,200.080714 C111.395193,187.696695 108.211919,173.826914 108.211919,156.345702 C108.211919,105.620721 149.306843,64.5 200,64.5 C250.693157,64.5 291.788081,105.620721 291.788081,156.345702 C291.788081,173.518804 288.796628,187.07745 283.001096,199.073013 C278.494621,208.400494 273.470698,215.308448 262.477744,228.360933 C262.19499,228.696661 260.741418,230.421143 260.329242,230.910703 C252.340669,240.399089 248.019016,245.932893 243.54646,252.85831 C240.056376,258.262443 237.064602,263.769026 234.542405,269.562048 C234.196178,270.608455 233.763424,272.466738 233.244143,275.136897 C232.645029,278.217552 229.946795,280.441596 226.808424,280.441596 L173.26032,280.441596 C170.018177,280.441598 167.262885,278.07186 166.777819,274.866207 C166.34415,272.000216 165.894808,270.01675 165.429792,268.91581 C165.346502,268.718618 165.260401,268.517411 165.171488,268.31219 Z M161.75083,239.841054 C163.552761,239.22416 165.485465,238.889383 167.496311,238.889383 C169.246464,238.889383 170.937424,239.142984 172.534489,239.615466 C174.12418,235.236865 177.926841,231.91913 182.591197,231.013004 C182.849494,227.130539 184.758085,223.699359 187.622029,221.414136 C192.623771,205.764921 190.333716,190.833431 194.807369,190.833431 C198.262541,190.833431 197.7846,199.934006 199.712695,211.367819 C201.647603,199.931856 201.018331,190.833431 204.510489,190.833431 C208.902751,190.833431 206.939164,205.539818 211.641998,221.050712 C214.74465,223.308322 216.843378,226.861318 217.142731,230.914558 C221.927152,231.630227 225.886887,234.867176 227.625404,239.229422 C229.122306,238.686776 230.737534,238.390869 232.421903,238.390869 C234.561355,238.390869 236.58926,238.868273 238.40482,239.722324 C241.715914,235.14355 245.599365,230.306562 251.416466,223.39733 C251.826095,222.911017 251.826095,222.911017 252.463451,222.1547 C253.180371,221.304013 253.180371,221.304013 253.566198,220.846099 C264.444217,207.930083 268.670069,201.942814 272.50881,193.997407 C277.640715,183.375414 280.134003,171.46067 280.134003,156.345702 C280.134003,112.061131 244.256788,76.161394 200,76.161394 C155.743212,76.161394 119.865997,112.061131 119.865997,156.345702 C119.865997,171.702539 122.515081,183.880007 127.991562,194.881332 C132.054772,203.043635 136.161274,208.767237 148.025798,222.821513 C154.549753,230.54956 158.475706,235.376208 161.75083,239.841054 L161.75083,239.841054 Z M230.954521,293.672191 C230.954521,296.470191 228.686294,298.738419 225.888293,298.738419 L174.07285,298.738419 C171.27485,298.738419 169.006622,296.470191 169.006622,293.672191 C169.006622,290.874191 171.27485,288.605963 174.07285,288.605963 L225.888293,288.605963 C228.686294,288.605963 230.954521,290.874191 230.954521,293.672191 Z M227.978498,311.552986 C227.978498,314.350986 225.710271,316.619214 222.912271,316.619214 L177.649009,316.619214 C174.851009,316.619214 172.582781,314.350986 172.582781,311.552986 C172.582781,308.754986 174.851009,306.486758 177.649009,306.486758 L222.912271,306.486758 C225.710271,306.486758 227.978498,308.754986 227.978498,311.552986 Z M220.291376,329.433781 C220.291376,332.231781 218.023148,334.500009 215.225148,334.500009 L184.801327,334.500009 C182.003327,334.500009 179.735099,332.231781 179.735099,329.433781 C179.735099,326.635781 182.003327,324.367553 184.801327,324.367553 L215.225148,324.367553 C218.023148,324.367553 220.291376,326.635781 220.291376,329.433781 Z M190.757365,132.058748 C193.225828,128.498622 195.876629,124.822155 199.649728,122.542819 C203.370307,124.765637 205.99511,128.376716 208.428326,131.873716 C214.159689,140.526047 217.66373,150.918618 216.956884,161.363707 C218.80906,162.911089 220.714803,164.396735 222.53941,165.975768 C225.158629,168.375097 226.381606,172.11782 225.751012,175.597256 C224.872297,179.992634 224.027781,184.397925 223.097768,188.781305 C222.580764,191.036469 219.519395,192.068926 217.719566,190.628146 C214.73218,188.14291 211.819125,185.5662 208.832612,183.077834 C206.57301,185.245003 203.571316,186.69013 200.419912,186.864207 C196.79216,187.119147 193.200527,185.619762 190.57049,183.170176 C188.427794,184.80503 186.441089,186.767517 184.347598,188.518538 C183.33575,189.328923 182.494376,190.3939 181.296874,190.947257 C179.440336,191.74112 177.04952,190.556325 176.629879,188.567405 C175.673867,184.282106 174.675105,180.00446 173.74736,175.712553 C172.993403,172.081822 174.328749,168.128677 177.135716,165.694568 C178.76071,164.334305 180.408388,163.001344 182.063742,161.678122 C182.524911,161.436398 182.293192,160.878867 182.319365,160.469328 C181.825917,150.39152 185.27988,140.430227 190.757365,132.058748 Z M193.689264,151.29332 C191.521442,154.074713 191.783696,158.382966 194.297874,160.866985 C196.959668,163.790108 202.001459,163.89671 204.785568,161.091319 C206.93472,159.134398 207.661457,155.848863 206.63565,153.149031 C205.695691,150.546236 203.179244,148.593662 200.411537,148.350895 C197.855657,148.057696 195.209218,149.229623 193.689264,151.29332 Z" id="logo"></path>
        </g>
    </g>
</svg>