<?xml version="1.0" standalone="no"?>
<!DOCTYPE svg PUBLIC "-//W3C//DTD SVG 20010904//EN"
 "http://www.w3.org/TR/2001/REC-SVG-20010904/DTD/svg10.dtd">
<svg version="1.0" xmlns="http://www.w3.org/2000/svg"
 width="400.000000pt" height="400.000000pt" viewBox="0 0 400.000000 400.000000"
 preserveAspectRatio="xMidYMid meet">
<metadata>
Created by potrace 1.11, written by Peter Selinger 2001-2013
</metadata>
<g transform="translate(0.000000,400.000000) scale(0.100000,-0.100000)"
fill="#000000" stroke="none">
<path d="M551 3989 c-243 -48 -439 -220 -519 -453 l-27 -81 0 -1450 0 -1450
29 -89 c68 -206 226 -364 433 -432 l88 -29 1450 0 1450 0 81 27 c201 69 363
231 431 432 l28 81 0 1450 0 1450 -29 89 c-67 204 -226 364 -430 434 l-81 27
-1430 2 c-789 0 -1450 -3 -1474 -8z m1588 -629 c106 -18 243 -67 330 -120 323
-194 494 -540 452 -920 -25 -237 -86 -363 -291 -609 -177 -214 -247 -321 -286
-441 -15 -46 -28 -69 -45 -77 -34 -18 -564 -18 -599 0 -13 7 -29 26 -34 42
-36 121 -89 216 -198 350 -39 50 -112 139 -160 199 -180 224 -251 438 -235
710 29 489 429 870 917 875 47 0 114 -4 149 -9z m159 -2272 c16 -16 15 -59 -4
-159 -23 -120 -61 -234 -90 -269 l-26 -30 -177 0 c-171 0 -178 1 -199 23 -32
34 -61 107 -87 225 -27 117 -32 191 -13 210 17 17 579 17 596 0z"/>
</g>
</svg>
