<?xml version="1.0" standalone="no"?>
<!DOCTYPE svg PUBLIC "-//W3C//DTD SVG 20010904//EN"
 "http://www.w3.org/TR/2001/REC-SVG-20010904/DTD/svg10.dtd">
<svg version="1.0" xmlns="http://www.w3.org/2000/svg"
 width="400.000000pt" height="400.000000pt" viewBox="0 0 400.000000 400.000000"
 preserveAspectRatio="xMidYMid meet">
<metadata>
Created by potrace 1.11, written by Peter Selinger 2001-2013
</metadata>
<g transform="translate(0.000000,400.000000) scale(0.100000,-0.100000)"
fill="#000000" stroke="none">
<path d="M535 3984 c-38 -8 -113 -35 -165 -61 -132 -65 -228 -161 -293 -293
-82 -168 -78 -70 -75 -1670 3 -1404 4 -1415 24 -1476 78 -227 231 -380 458
-458 61 -20 72 -21 1476 -24 1600 -3 1502 -7 1670 75 132 65 228 161 293 293
81 167 77 73 77 1630 0 1557 4 1463 -77 1630 -79 162 -217 279 -407 344 -61
20 -70 21 -1486 23 -1213 1 -1435 -1 -1495 -13z m1613 -274 c393 -50 740 -306
913 -674 135 -289 139 -685 10 -986 -51 -119 -125 -228 -285 -420 -207 -250
-331 -442 -356 -557 -6 -26 -21 -58 -32 -70 l-21 -23 -377 0 -377 0 -21 23
c-11 12 -24 41 -28 65 -16 102 -131 283 -334 527 -235 284 -314 417 -366 622
-144 567 104 1127 611 1381 112 56 235 93 385 116 53 8 199 6 278 -4z m201
-2841 c52 -18 56 -94 6 -117 -36 -17 -674 -17 -710 0 -47 21 -46 99 2 116 40
15 661 15 702 1z m-14 -244 c14 -13 25 -29 25 -35 0 -16 -21 -53 -34 -62 -6
-4 -152 -8 -323 -8 -300 0 -314 1 -333 20 -27 27 -25 56 5 85 l24 25 306 0
306 0 24 -25z m-95 -225 c26 -26 25 -58 -2 -87 -21 -23 -25 -23 -239 -23
l-218 0 -20 26 c-26 34 -26 54 -1 82 20 21 27 22 240 22 207 0 221 -1 240 -20z"/>
<path d="M1834 3556 c-335 -64 -594 -257 -742 -552 -110 -217 -136 -500 -71
-758 43 -173 111 -283 367 -594 l123 -150 68 2 c65 1 69 2 102 40 18 21 48 45
66 52 22 10 33 22 38 43 3 17 19 46 35 66 32 40 43 82 65 252 18 138 21 149
40 157 25 9 44 -35 56 -137 7 -53 14 -96 15 -94 2 1 8 45 15 97 12 100 29 143
53 134 21 -8 25 -25 41 -149 22 -168 33 -210 65 -250 16 -20 34 -52 40 -70 8
-25 22 -39 56 -55 25 -12 55 -36 67 -54 21 -30 25 -31 90 -31 l68 0 119 145
c193 234 248 309 301 415 59 119 86 220 99 371 46 520 -267 973 -759 1101
-119 31 -310 39 -417 19z m223 -630 c88 -96 145 -228 159 -367 7 -69 9 -73 55
-118 26 -25 51 -59 55 -75 9 -36 -25 -223 -44 -242 -22 -23 -49 -16 -94 23
-82 71 -76 68 -95 50 -45 -40 -131 -41 -190 -2 -23 16 -26 15 -84 -36 -72 -62
-102 -62 -118 -1 -52 193 -49 228 23 288 42 35 44 39 51 106 8 91 38 187 81
264 37 68 119 164 139 164 7 0 35 -24 62 -54z"/>
<path d="M1933 2626 c-22 -19 -28 -32 -28 -66 0 -53 38 -90 91 -90 47 0 94 45
94 90 0 22 -9 41 -29 61 -38 37 -88 39 -128 5z"/>
</g>
</svg>
