<?xml version="1.0" standalone="no"?>
<!DOCTYPE svg PUBLIC "-//W3C//DTD SVG 20010904//EN"
 "http://www.w3.org/TR/2001/REC-SVG-20010904/DTD/svg10.dtd">
<svg version="1.0" xmlns="http://www.w3.org/2000/svg"
 width="400.000000pt" height="400.000000pt" viewBox="0 0 400.000000 400.000000"
 preserveAspectRatio="xMidYMid meet">
<metadata>
Created by potrace 1.11, written by Peter Selinger 2001-2013
</metadata>
<g transform="translate(0.000000,400.000000) scale(0.100000,-0.100000)"
fill="#000000" stroke="none">
<path d="M569 3989 c-210 -31 -399 -170 -492 -361 -25 -51 -51 -118 -59 -148
-19 -81 -19 -2879 0 -2960 8 -30 34 -97 59 -149 61 -127 160 -229 283 -290
127 -62 172 -72 373 -78 l178 -6 72 34 c69 33 76 34 193 34 l122 0 22 43 c13
23 41 58 63 78 37 34 128 84 153 84 6 0 14 18 18 41 9 53 39 113 87 171 56 67
88 204 124 518 21 182 32 236 59 267 17 20 27 24 45 18 39 -12 59 -78 81 -266
29 -238 34 -250 49 -109 20 191 40 308 56 339 17 35 50 48 71 30 38 -31 40
-42 89 -407 9 -68 28 -171 41 -229 21 -95 27 -108 69 -155 55 -61 71 -90 89
-159 12 -49 15 -53 56 -65 82 -24 190 -119 212 -186 2 -6 25 -6 66 2 94 17
211 -12 274 -67 15 -13 48 -15 220 -10 230 6 268 14 398 79 124 63 221 161
282 288 25 52 52 120 60 150 19 81 19 2879 0 2960 -8 30 -34 97 -59 149 -61
127 -160 229 -283 290 -167 82 -25 75 -1605 77 -775 1 -1435 -2 -1466 -7z
m1500 -1056 c161 -162 288 -412 331 -648 6 -33 13 -106 17 -161 l6 -101 78
-66 c144 -123 159 -180 109 -427 -41 -207 -47 -227 -73 -245 -46 -32 -80 -20
-178 63 -50 42 -105 88 -121 101 l-30 24 -27 -20 c-122 -91 -276 -95 -390 -13
-49 36 -36 42 -156 -66 -110 -97 -127 -108 -170 -100 -21 4 -41 17 -51 31 -22
34 -94 355 -94 418 0 94 62 184 193 280 26 20 27 25 27 101 0 260 104 534 293
774 47 60 129 132 150 132 5 0 44 -35 86 -77z"/>
<path d="M1932 2347 c-55 -11 -117 -70 -132 -127 -30 -112 42 -219 155 -228
71 -6 97 2 141 40 80 71 87 186 16 261 -49 52 -106 69 -180 54z"/>
</g>
</svg>
