<?xml version="1.0" standalone="no"?>
<!DOCTYPE svg PUBLIC "-//W3C//DTD SVG 20010904//EN"
 "http://www.w3.org/TR/2001/REC-SVG-20010904/DTD/svg10.dtd">
<svg version="1.0" xmlns="http://www.w3.org/2000/svg"
 width="400.000000pt" height="400.000000pt" viewBox="0 0 400.000000 400.000000"
 preserveAspectRatio="xMidYMid meet">
<metadata>
Created by potrace 1.11, written by Peter Selinger 2001-2013
</metadata>
<g transform="translate(0.000000,400.000000) scale(0.100000,-0.100000)"
fill="#000000" stroke="none">
<path d="M551 3989 c-243 -48 -439 -220 -519 -453 l-27 -81 0 -1450 0 -1450
29 -89 c68 -206 226 -364 433 -432 l88 -29 1450 0 1450 0 81 27 c201 69 363
231 431 432 l28 81 0 1450 0 1450 -29 89 c-67 204 -226 364 -430 434 l-81 27
-1430 2 c-789 0 -1450 -3 -1474 -8z m1541 -419 c265 -26 496 -137 675 -323 87
-92 136 -161 193 -275 140 -280 143 -670 6 -957 -52 -108 -107 -186 -255 -365
-184 -220 -288 -382 -317 -493 -8 -31 -23 -61 -39 -74 -26 -23 -28 -23 -355
-23 -327 0 -329 0 -355 23 -16 13 -30 40 -36 67 -24 107 -118 255 -309 486
-153 185 -219 278 -266 377 -81 173 -117 399 -95 597 27 252 121 456 294 637
176 184 410 298 662 322 44 5 85 9 90 9 6 1 54 -3 107 -8z m248 -2620 c11 -11
20 -29 20 -40 0 -11 -9 -29 -20 -40 -19 -19 -33 -20 -338 -20 -271 0 -321 2
-340 16 -28 19 -29 57 -2 84 19 19 33 20 340 20 307 0 321 -1 340 -20z m-44
-198 c39 -26 36 -79 -6 -102 -11 -6 -126 -10 -294 -10 -263 0 -277 1 -296 20
-11 11 -20 29 -20 40 0 11 9 29 20 40 19 19 33 20 303 20 155 0 287 -4 293 -8z
m-78 -214 c24 -31 23 -57 -2 -83 -25 -25 -25 -25 -216 -25 -191 0 -191 0 -216
25 -19 19 -23 31 -18 48 14 47 15 47 234 47 154 0 210 -3 218 -12z"/>
</g>
</svg>
