<svg width="264" height="375" viewBox="0 0 264 375" xmlns="http://www.w3.org/2000/svg">
  <g fill="none" fill-rule="evenodd">
    <path d="M98 355l-15-90h105l-15 90s-12 20-37.5 20S98 355 98 355z" fill="#000"/>
    <path fill="#FFF" d="M60.547 345h155.78v10H60.546zM57.61 285h155.78v10H57.61zM57.61 315h155.78v10H57.61z"/>
    <path d="M110.45 255l-9.678-13.85-5.736-50.397-23.454-24.123 8.41-17.057-1.01-8.416-10.317-.775-13.8-10.788-3.696-.68-4.268-2.125-11.786-2.942-2.81-10.77-8.74-18.852h-3.03l5.6 18.846-4.373-.675-5.382-9.173-5.61-21.054C3.952 98.153.12 115.707.003 134.13L0 135c0 52.11 67 110 75 120h35.45zm8.04 0l-1.58-2.332L113 242l-.41-7.228L126 224l9-13 15-14 7-31-22-8-18-15-20.297-10.494L74.417 135l-12.28-11.586-8.075-2.47-7.395-11.106 11.827-10.776 25.273-4.936 25.244-23.483 20.537-6.99 9.556 4.66-1.01-13.916-5.488-11.1-9.655 3.476.675-6.063-9.63-1.96-3.97 11.867-10.018 8.24-9.837-8.076 7.32-14.197 6.48 2.166 12.154-9.227 13.553 1.402 10.2 4.185 2.025-3.815-4.038-5.834-12.672-5.61-17.608 1.01-17.044 2.694-9.538-5.277h-7.63l-7.964 5.946h7.3l8.07 7.072-9.09-.334-16.006-5.106C77.968 9.614 105.372 0 134.994 0c34.136 0 65.33 12.766 89.13 33.73l-7.828 5.307 1.197 6.614 7.478 2.613-.75 6.48s-11.174 2.406-11.966 3.524c-.167.236-3.284-1.914-5.5-4.94-2.593-3.538-4.343-8.035-4.597-7.676-.09.128-5.242 1.998-5.242 1.998l-7.2 6.75v3.87l7.81-.68 5.236 5.313-5.845 9.128-7.706 4.93 4.84 9.174 11.78-3.786 6.604-8.586 9.426.047 8.956 5.493-4.466 3.093 4.754 3.228 12.566-1.765 10.148 2.524 7.032-.12c1.36 3.5 2.9 11.394 2.9 11.394h-10.777l-6.556-4.884-11.44 3.2L223 87.41l-36.115 5.25-14.914 18.393 1.24 21.2 12.888 14.69 27.838-.445 14.826 25.39 2.054 33.367 3.703 6.185C216.827 233.342 198.46 250.056 195 255h-76.51z" fill="#000"/>
  </g>
</svg>
