<svg width="109" height="160" xmlns="http://www.w3.org/2000/svg">
  <path d="M33.754 120.778c-1.425-3.143-3.112-6.16-5.075-9.145-2.67-4.061-5.014-7.019-10.361-13.353-7.058-8.36-9.97-12.294-12.778-17.936C1.886 73.005 0 64.786 0 54.427 0 24.367 24.353 0 54.393 0s54.393 24.368 54.393 54.427c0 10.177-1.773 18.211-5.207 25.32-2.67 5.527-5.648 9.621-12.162 17.356-.168.199-1.03 1.22-1.273 1.51-4.734 5.623-7.295 8.903-9.946 13.007-2.068 3.202-3.84 6.465-5.335 9.898-.206.62-.462 1.722-.77 3.304a3.885 3.885 0 0 1-3.814 3.143H38.547a3.885 3.885 0 0 1-3.841-3.304c-.257-1.698-.524-2.873-.8-3.526-.048-.117-.1-.236-.152-.357zm-2.027-16.872a10.493 10.493 0 0 1 3.404-.564c1.038 0 2.04.15 2.986.43a7.975 7.975 0 0 1 5.96-5.098 7.945 7.945 0 0 1 2.98-5.688c2.965-9.273 1.608-18.122 4.259-18.122 2.047 0 1.764 5.393 2.907 12.169 1.146-6.777.773-12.169 2.843-12.169 2.603 0 1.439 8.715 4.226 17.907a7.95 7.95 0 0 1 3.26 5.845 7.973 7.973 0 0 1 6.212 4.927 8.324 8.324 0 0 1 2.842-.497 8.29 8.29 0 0 1 3.545.79c1.962-2.714 4.264-5.58 7.71-9.675l.621-.736.654-.775c6.446-7.654 8.95-11.202 11.225-15.91 3.041-6.295 4.519-13.356 4.519-22.313 0-26.243-21.26-47.517-47.487-47.517-26.226 0-47.487 21.274-47.487 47.517 0 9.1 1.57 16.317 4.815 22.836 2.408 4.837 4.842 8.229 11.872 16.557 3.866 4.58 6.193 7.44 8.134 10.086zm41.01 31.9a3.002 3.002 0 0 1-3.003 3.002H39.03a3.002 3.002 0 1 1 0-6.004h30.705a3.002 3.002 0 0 1 3.002 3.002zm-1.764 10.596a3.002 3.002 0 0 1-3.002 3.002H41.148a3.002 3.002 0 1 1 0-6.004H67.97a3.002 3.002 0 0 1 3.002 3.002zm-4.556 10.596A3.002 3.002 0 0 1 63.415 160H45.386a3.002 3.002 0 0 1 0-6.004h18.03a3.002 3.002 0 0 1 3.001 3.002zM48.916 40.035c1.463-2.11 3.033-4.289 5.27-5.64 2.204 1.318 3.76 3.458 5.201 5.53 3.397 5.127 5.473 11.286 5.054 17.476 1.098.917 2.227 1.797 3.309 2.733 1.552 1.422 2.276 3.64 1.903 5.701-.52 2.605-1.021 5.216-1.572 7.813-.307 1.337-2.121 1.948-3.188 1.095-1.77-1.473-3.496-3-5.266-4.475-1.339 1.285-3.118 2.141-4.985 2.244-2.15.151-4.278-.737-5.837-2.189-1.27.969-2.447 2.132-3.688 3.17-.6.48-1.098 1.11-1.807 1.439-1.1.47-2.517-.232-2.766-1.41-.567-2.54-1.158-5.075-1.708-7.618-.447-2.152.344-4.494 2.008-5.937.963-.806 1.94-1.596 2.92-2.38.273-.143.136-.474.152-.716-.293-5.972 1.754-11.875 5-16.836zm1.737 11.398c-1.284 1.648-1.129 4.201.36 5.673 1.578 1.733 4.566 1.796 6.216.133 1.273-1.16 1.704-3.106 1.096-4.706-.557-1.543-2.048-2.7-3.688-2.844-1.515-.173-3.083.521-3.984 1.744z" fill="#FFF"/>
</svg>
