<svg width="113" height="160" viewBox="0 0 113 160" xmlns="http://www.w3.org/2000/svg">
  <path d="M76.837 134.14l1.418-8.492H37.83l1.418 8.493h37.59zm-.71 4.247l-1.418 8.493H41.375l-1.418-8.493h36.17zm2.838-16.985l1.418-8.493h-44.68l1.418 8.492h41.845zm-36.88 29.724s5.107 8.493 15.958 8.493c10.85 0 15.957-8.494 15.957-8.494H42.085zm5.3-42.463l-4.12-5.88-2.44-21.402-9.98-10.242 3.578-7.243-.43-3.574-4.39-.328-5.872-4.58-1.573-.29-1.816-.902-5.014-1.25L14.13 48.4l-3.72-8.005H9.123l2.383 8.002-1.86-.286-2.29-3.897-2.39-8.94c-2.9 6.787-4.53 14.24-4.58 22.064l-.002.37c0 22.127 28.51 46.71 31.915 50.956h15.086zm3.42 0l-.673-.99-1.664-4.53-.174-3.07L54 95.5l3.83-5.52 6.383-5.946 2.98-13.164-9.363-3.397-7.66-6.37-8.637-4.456-9.483 1.06-5.225-4.92-3.437-1.05-3.147-4.715 5.034-4.576L36.03 40.35l10.74-9.972 8.74-2.968 4.066 1.98-.43-5.91-2.335-4.713-4.108 1.475.288-2.574-4.1-.833-1.687 5.04-4.264 3.5-4.187-3.43 3.115-6.03 2.757.92 5.173-3.918 5.767.596 4.34 1.777.862-1.62-1.718-2.477-5.393-2.383-7.493.43-7.253 1.143-4.058-2.24h-3.247l-3.39 2.524h3.108l3.434 3.003-3.868-.142-6.812-2.168C33.56 4.463 45.222.38 57.828.38c14.525 0 27.8 5.422 37.928 14.324l-3.332 2.253.51 2.81 3.18 1.108-.318 2.752s-4.755 1.022-5.092 1.496c-.07.1-1.398-.812-2.34-2.097-1.104-1.503-1.848-3.413-1.957-3.26-.038.054-2.23.848-2.23.848l-3.064 2.866v1.643l3.323-.288 2.228 2.256-2.487 3.877-3.28 2.093 2.06 3.896 5.014-1.608 2.81-3.646 4.012.02 3.81 2.333-1.9 1.313 2.023 1.37 5.348-.75 4.318 1.072 2.993-.05c.58 1.486 1.234 4.838 1.234 4.838h-4.586l-2.79-2.074-4.866 1.36-5.098-3.636-15.367 2.23-6.348 7.81.527 9.002 5.484 6.24 11.846-.19 6.308 10.78.875 14.17 1.575 2.626c-7.527 9.3-15.344 16.398-16.816 18.497H50.805z" fill="#FFF" fill-rule="evenodd"/>
</svg>
